%TF.GenerationSoftware,KiCad,Pcbnew,9.0.6*%
%TF.CreationDate,2025-12-11T12:47:50+11:00*%
%TF.ProjectId,vali-macroPAD,76616c69-2d6d-4616-9372-6f5041442e6b,rev?*%
%TF.SameCoordinates,Original*%
%TF.FileFunction,Soldermask,Bot*%
%TF.FilePolarity,Negative*%
%FSLAX46Y46*%
G04 Gerber Fmt 4.6, Leading zero omitted, Abs format (unit mm)*
G04 Created by KiCad (PCBNEW 9.0.6) date 2025-12-11 12:47:50*
%MOMM*%
%LPD*%
G01*
G04 APERTURE LIST*
G04 Aperture macros list*
%AMRoundRect*
0 Rectangle with rounded corners*
0 $1 Rounding radius*
0 $2 $3 $4 $5 $6 $7 $8 $9 X,Y pos of 4 corners*
0 Add a 4 corners polygon primitive as box body*
4,1,4,$2,$3,$4,$5,$6,$7,$8,$9,$2,$3,0*
0 Add four circle primitives for the rounded corners*
1,1,$1+$1,$2,$3*
1,1,$1+$1,$4,$5*
1,1,$1+$1,$6,$7*
1,1,$1+$1,$8,$9*
0 Add four rect primitives between the rounded corners*
20,1,$1+$1,$2,$3,$4,$5,0*
20,1,$1+$1,$4,$5,$6,$7,0*
20,1,$1+$1,$6,$7,$8,$9,0*
20,1,$1+$1,$8,$9,$2,$3,0*%
G04 Aperture macros list end*
%ADD10C,1.700000*%
%ADD11C,4.000000*%
%ADD12C,2.200000*%
%ADD13R,2.000000X2.000000*%
%ADD14C,2.000000*%
%ADD15R,3.200000X2.000000*%
%ADD16RoundRect,0.250000X-0.550000X-0.550000X0.550000X-0.550000X0.550000X0.550000X-0.550000X0.550000X0*%
%ADD17C,1.600000*%
%ADD18C,3.200000*%
%ADD19R,1.700000X1.700000*%
%ADD20O,1.700000X1.700000*%
%ADD21C,1.524000*%
G04 APERTURE END LIST*
D10*
%TO.C,SW11*%
X175895000Y-109537500D03*
D11*
X180975000Y-109537500D03*
D10*
X186055000Y-109537500D03*
D12*
X183515000Y-104457500D03*
X177165000Y-106997500D03*
%TD*%
D10*
%TO.C,SW6*%
X118745000Y-109537500D03*
D11*
X123825000Y-109537500D03*
D10*
X128905000Y-109537500D03*
D12*
X126365000Y-104457500D03*
X120015000Y-106997500D03*
%TD*%
D13*
%TO.C,SW10*%
X192775000Y-87987500D03*
D14*
X192775000Y-92987500D03*
X192775000Y-90487500D03*
D15*
X200275000Y-84887500D03*
X200275000Y-96087500D03*
D14*
X207275000Y-92987500D03*
X207275000Y-87987500D03*
%TD*%
D16*
%TO.C,D2*%
X118190000Y-69000000D03*
D17*
X125810000Y-69000000D03*
%TD*%
D16*
%TO.C,D10*%
X140380000Y-69000000D03*
D17*
X148000000Y-69000000D03*
%TD*%
D10*
%TO.C,SW3*%
X137795000Y-90487500D03*
D11*
X142875000Y-90487500D03*
D10*
X147955000Y-90487500D03*
D12*
X145415000Y-85407500D03*
X139065000Y-87947500D03*
%TD*%
D16*
%TO.C,D7*%
X129380000Y-74000000D03*
D17*
X137000000Y-74000000D03*
%TD*%
D16*
%TO.C,D12*%
X140380000Y-78000000D03*
D17*
X148000000Y-78000000D03*
%TD*%
D16*
%TO.C,D8*%
X129380000Y-78000000D03*
D17*
X137000000Y-78000000D03*
%TD*%
D10*
%TO.C,SW7*%
X137795000Y-109537500D03*
D11*
X142875000Y-109537500D03*
D10*
X147955000Y-109537500D03*
D12*
X145415000Y-104457500D03*
X139065000Y-106997500D03*
%TD*%
D10*
%TO.C,SW4*%
X156845000Y-90487500D03*
D11*
X161925000Y-90487500D03*
D10*
X167005000Y-90487500D03*
D12*
X164465000Y-85407500D03*
X158115000Y-87947500D03*
%TD*%
D10*
%TO.C,SW12*%
X194945000Y-109537500D03*
D11*
X200025000Y-109537500D03*
D10*
X205105000Y-109537500D03*
D12*
X202565000Y-104457500D03*
X196215000Y-106997500D03*
%TD*%
D16*
%TO.C,D6*%
X129380000Y-69000000D03*
D17*
X137000000Y-69000000D03*
%TD*%
D18*
%TO.C,M3*%
X202900000Y-79800000D03*
%TD*%
D10*
%TO.C,SW1*%
X99695000Y-90487500D03*
D11*
X104775000Y-90487500D03*
D10*
X109855000Y-90487500D03*
D12*
X107315000Y-85407500D03*
X100965000Y-87947500D03*
%TD*%
D19*
%TO.C,OL1*%
X207168750Y-66198750D03*
D20*
X207168750Y-68738750D03*
X207168750Y-71278750D03*
X207168750Y-73818750D03*
%TD*%
D10*
%TO.C,SW8*%
X156845000Y-109537500D03*
D11*
X161925000Y-109537500D03*
D10*
X167005000Y-109537500D03*
D12*
X164465000Y-104457500D03*
X158115000Y-106997500D03*
%TD*%
D16*
%TO.C,D11*%
X140380000Y-74000000D03*
D17*
X148000000Y-74000000D03*
%TD*%
D21*
%TO.C,U1*%
X98151250Y-79057500D03*
X100691250Y-79057500D03*
X103231250Y-79057500D03*
X105771250Y-79057500D03*
X108311250Y-79057500D03*
X110851250Y-79057500D03*
X113391250Y-79057500D03*
X113391250Y-63817500D03*
X110851250Y-63817500D03*
X108311250Y-63817500D03*
X105771250Y-63817500D03*
X103231250Y-63817500D03*
X100691250Y-63817500D03*
X98151250Y-63817500D03*
%TD*%
D16*
%TO.C,D5*%
X129380000Y-65000000D03*
D17*
X137000000Y-65000000D03*
%TD*%
D10*
%TO.C,SW9*%
X175895000Y-90487500D03*
D11*
X180975000Y-90487500D03*
D10*
X186055000Y-90487500D03*
D12*
X183515000Y-85407500D03*
X177165000Y-87947500D03*
%TD*%
D16*
%TO.C,D9*%
X140380000Y-65000000D03*
D17*
X148000000Y-65000000D03*
%TD*%
D16*
%TO.C,D4*%
X118190000Y-78000000D03*
D17*
X125810000Y-78000000D03*
%TD*%
D16*
%TO.C,D1*%
X118190000Y-65000000D03*
D17*
X125810000Y-65000000D03*
%TD*%
D10*
%TO.C,SW5*%
X99695000Y-109537500D03*
D11*
X104775000Y-109537500D03*
D10*
X109855000Y-109537500D03*
D12*
X107315000Y-104457500D03*
X100965000Y-106997500D03*
%TD*%
D10*
%TO.C,SW2*%
X118745000Y-90487500D03*
D11*
X123825000Y-90487500D03*
D10*
X128905000Y-90487500D03*
D12*
X126365000Y-85407500D03*
X120015000Y-87947500D03*
%TD*%
D16*
%TO.C,D3*%
X118190000Y-74000000D03*
D17*
X125810000Y-74000000D03*
%TD*%
M02*
