%TF.GenerationSoftware,KiCad,Pcbnew,9.0.6*%
%TF.CreationDate,2025-12-11T12:47:50+11:00*%
%TF.ProjectId,vali-macroPAD,76616c69-2d6d-4616-9372-6f5041442e6b,rev?*%
%TF.SameCoordinates,Original*%
%TF.FileFunction,Legend,Bot*%
%TF.FilePolarity,Positive*%
%FSLAX46Y46*%
G04 Gerber Fmt 4.6, Leading zero omitted, Abs format (unit mm)*
G04 Created by KiCad (PCBNEW 9.0.6) date 2025-12-11 12:47:50*
%MOMM*%
%LPD*%
G01*
G04 APERTURE LIST*
%ADD10C,0.100000*%
%ADD11C,0.000000*%
G04 APERTURE END LIST*
D10*
X208296115Y-113242587D02*
X208296115Y-112575920D01*
X208296115Y-112671158D02*
X208248496Y-112623539D01*
X208248496Y-112623539D02*
X208153258Y-112575920D01*
X208153258Y-112575920D02*
X208010401Y-112575920D01*
X208010401Y-112575920D02*
X207915163Y-112623539D01*
X207915163Y-112623539D02*
X207867544Y-112718777D01*
X207867544Y-112718777D02*
X207867544Y-113242587D01*
X207867544Y-112718777D02*
X207819925Y-112623539D01*
X207819925Y-112623539D02*
X207724687Y-112575920D01*
X207724687Y-112575920D02*
X207581830Y-112575920D01*
X207581830Y-112575920D02*
X207486591Y-112623539D01*
X207486591Y-112623539D02*
X207438972Y-112718777D01*
X207438972Y-112718777D02*
X207438972Y-113242587D01*
X206534211Y-113242587D02*
X206534211Y-112718777D01*
X206534211Y-112718777D02*
X206581830Y-112623539D01*
X206581830Y-112623539D02*
X206677068Y-112575920D01*
X206677068Y-112575920D02*
X206867544Y-112575920D01*
X206867544Y-112575920D02*
X206962782Y-112623539D01*
X206534211Y-113194968D02*
X206629449Y-113242587D01*
X206629449Y-113242587D02*
X206867544Y-113242587D01*
X206867544Y-113242587D02*
X206962782Y-113194968D01*
X206962782Y-113194968D02*
X207010401Y-113099729D01*
X207010401Y-113099729D02*
X207010401Y-113004491D01*
X207010401Y-113004491D02*
X206962782Y-112909253D01*
X206962782Y-112909253D02*
X206867544Y-112861634D01*
X206867544Y-112861634D02*
X206629449Y-112861634D01*
X206629449Y-112861634D02*
X206534211Y-112814015D01*
X205629449Y-113194968D02*
X205724687Y-113242587D01*
X205724687Y-113242587D02*
X205915163Y-113242587D01*
X205915163Y-113242587D02*
X206010401Y-113194968D01*
X206010401Y-113194968D02*
X206058020Y-113147348D01*
X206058020Y-113147348D02*
X206105639Y-113052110D01*
X206105639Y-113052110D02*
X206105639Y-112766396D01*
X206105639Y-112766396D02*
X206058020Y-112671158D01*
X206058020Y-112671158D02*
X206010401Y-112623539D01*
X206010401Y-112623539D02*
X205915163Y-112575920D01*
X205915163Y-112575920D02*
X205724687Y-112575920D01*
X205724687Y-112575920D02*
X205629449Y-112623539D01*
X205200877Y-113242587D02*
X205200877Y-112575920D01*
X205200877Y-112766396D02*
X205153258Y-112671158D01*
X205153258Y-112671158D02*
X205105639Y-112623539D01*
X205105639Y-112623539D02*
X205010401Y-112575920D01*
X205010401Y-112575920D02*
X204915163Y-112575920D01*
X204438972Y-113242587D02*
X204534210Y-113194968D01*
X204534210Y-113194968D02*
X204581829Y-113147348D01*
X204581829Y-113147348D02*
X204629448Y-113052110D01*
X204629448Y-113052110D02*
X204629448Y-112766396D01*
X204629448Y-112766396D02*
X204581829Y-112671158D01*
X204581829Y-112671158D02*
X204534210Y-112623539D01*
X204534210Y-112623539D02*
X204438972Y-112575920D01*
X204438972Y-112575920D02*
X204296115Y-112575920D01*
X204296115Y-112575920D02*
X204200877Y-112623539D01*
X204200877Y-112623539D02*
X204153258Y-112671158D01*
X204153258Y-112671158D02*
X204105639Y-112766396D01*
X204105639Y-112766396D02*
X204105639Y-113052110D01*
X204105639Y-113052110D02*
X204153258Y-113147348D01*
X204153258Y-113147348D02*
X204200877Y-113194968D01*
X204200877Y-113194968D02*
X204296115Y-113242587D01*
X204296115Y-113242587D02*
X204438972Y-113242587D01*
X203677067Y-113242587D02*
X203677067Y-112242587D01*
X203677067Y-112242587D02*
X203296115Y-112242587D01*
X203296115Y-112242587D02*
X203200877Y-112290206D01*
X203200877Y-112290206D02*
X203153258Y-112337825D01*
X203153258Y-112337825D02*
X203105639Y-112433063D01*
X203105639Y-112433063D02*
X203105639Y-112575920D01*
X203105639Y-112575920D02*
X203153258Y-112671158D01*
X203153258Y-112671158D02*
X203200877Y-112718777D01*
X203200877Y-112718777D02*
X203296115Y-112766396D01*
X203296115Y-112766396D02*
X203677067Y-112766396D01*
X202724686Y-112956872D02*
X202248496Y-112956872D01*
X202819924Y-113242587D02*
X202486591Y-112242587D01*
X202486591Y-112242587D02*
X202153258Y-113242587D01*
X201819924Y-113242587D02*
X201819924Y-112242587D01*
X201819924Y-112242587D02*
X201581829Y-112242587D01*
X201581829Y-112242587D02*
X201438972Y-112290206D01*
X201438972Y-112290206D02*
X201343734Y-112385444D01*
X201343734Y-112385444D02*
X201296115Y-112480682D01*
X201296115Y-112480682D02*
X201248496Y-112671158D01*
X201248496Y-112671158D02*
X201248496Y-112814015D01*
X201248496Y-112814015D02*
X201296115Y-113004491D01*
X201296115Y-113004491D02*
X201343734Y-113099729D01*
X201343734Y-113099729D02*
X201438972Y-113194968D01*
X201438972Y-113194968D02*
X201581829Y-113242587D01*
X201581829Y-113242587D02*
X201819924Y-113242587D01*
X208296115Y-114852531D02*
X208296115Y-113852531D01*
X208296115Y-113852531D02*
X208058020Y-113852531D01*
X208058020Y-113852531D02*
X207915163Y-113900150D01*
X207915163Y-113900150D02*
X207819925Y-113995388D01*
X207819925Y-113995388D02*
X207772306Y-114090626D01*
X207772306Y-114090626D02*
X207724687Y-114281102D01*
X207724687Y-114281102D02*
X207724687Y-114423959D01*
X207724687Y-114423959D02*
X207772306Y-114614435D01*
X207772306Y-114614435D02*
X207819925Y-114709673D01*
X207819925Y-114709673D02*
X207915163Y-114804912D01*
X207915163Y-114804912D02*
X208058020Y-114852531D01*
X208058020Y-114852531D02*
X208296115Y-114852531D01*
X206915163Y-114804912D02*
X207010401Y-114852531D01*
X207010401Y-114852531D02*
X207200877Y-114852531D01*
X207200877Y-114852531D02*
X207296115Y-114804912D01*
X207296115Y-114804912D02*
X207343734Y-114709673D01*
X207343734Y-114709673D02*
X207343734Y-114328721D01*
X207343734Y-114328721D02*
X207296115Y-114233483D01*
X207296115Y-114233483D02*
X207200877Y-114185864D01*
X207200877Y-114185864D02*
X207010401Y-114185864D01*
X207010401Y-114185864D02*
X206915163Y-114233483D01*
X206915163Y-114233483D02*
X206867544Y-114328721D01*
X206867544Y-114328721D02*
X206867544Y-114423959D01*
X206867544Y-114423959D02*
X207343734Y-114519197D01*
X206486591Y-114804912D02*
X206391353Y-114852531D01*
X206391353Y-114852531D02*
X206200877Y-114852531D01*
X206200877Y-114852531D02*
X206105639Y-114804912D01*
X206105639Y-114804912D02*
X206058020Y-114709673D01*
X206058020Y-114709673D02*
X206058020Y-114662054D01*
X206058020Y-114662054D02*
X206105639Y-114566816D01*
X206105639Y-114566816D02*
X206200877Y-114519197D01*
X206200877Y-114519197D02*
X206343734Y-114519197D01*
X206343734Y-114519197D02*
X206438972Y-114471578D01*
X206438972Y-114471578D02*
X206486591Y-114376340D01*
X206486591Y-114376340D02*
X206486591Y-114328721D01*
X206486591Y-114328721D02*
X206438972Y-114233483D01*
X206438972Y-114233483D02*
X206343734Y-114185864D01*
X206343734Y-114185864D02*
X206200877Y-114185864D01*
X206200877Y-114185864D02*
X206105639Y-114233483D01*
X205629448Y-114852531D02*
X205629448Y-114185864D01*
X205629448Y-113852531D02*
X205677067Y-113900150D01*
X205677067Y-113900150D02*
X205629448Y-113947769D01*
X205629448Y-113947769D02*
X205581829Y-113900150D01*
X205581829Y-113900150D02*
X205629448Y-113852531D01*
X205629448Y-113852531D02*
X205629448Y-113947769D01*
X204724687Y-114185864D02*
X204724687Y-114995388D01*
X204724687Y-114995388D02*
X204772306Y-115090626D01*
X204772306Y-115090626D02*
X204819925Y-115138245D01*
X204819925Y-115138245D02*
X204915163Y-115185864D01*
X204915163Y-115185864D02*
X205058020Y-115185864D01*
X205058020Y-115185864D02*
X205153258Y-115138245D01*
X204724687Y-114804912D02*
X204819925Y-114852531D01*
X204819925Y-114852531D02*
X205010401Y-114852531D01*
X205010401Y-114852531D02*
X205105639Y-114804912D01*
X205105639Y-114804912D02*
X205153258Y-114757292D01*
X205153258Y-114757292D02*
X205200877Y-114662054D01*
X205200877Y-114662054D02*
X205200877Y-114376340D01*
X205200877Y-114376340D02*
X205153258Y-114281102D01*
X205153258Y-114281102D02*
X205105639Y-114233483D01*
X205105639Y-114233483D02*
X205010401Y-114185864D01*
X205010401Y-114185864D02*
X204819925Y-114185864D01*
X204819925Y-114185864D02*
X204724687Y-114233483D01*
X204248496Y-114185864D02*
X204248496Y-114852531D01*
X204248496Y-114281102D02*
X204200877Y-114233483D01*
X204200877Y-114233483D02*
X204105639Y-114185864D01*
X204105639Y-114185864D02*
X203962782Y-114185864D01*
X203962782Y-114185864D02*
X203867544Y-114233483D01*
X203867544Y-114233483D02*
X203819925Y-114328721D01*
X203819925Y-114328721D02*
X203819925Y-114852531D01*
X202962782Y-114804912D02*
X203058020Y-114852531D01*
X203058020Y-114852531D02*
X203248496Y-114852531D01*
X203248496Y-114852531D02*
X203343734Y-114804912D01*
X203343734Y-114804912D02*
X203391353Y-114709673D01*
X203391353Y-114709673D02*
X203391353Y-114328721D01*
X203391353Y-114328721D02*
X203343734Y-114233483D01*
X203343734Y-114233483D02*
X203248496Y-114185864D01*
X203248496Y-114185864D02*
X203058020Y-114185864D01*
X203058020Y-114185864D02*
X202962782Y-114233483D01*
X202962782Y-114233483D02*
X202915163Y-114328721D01*
X202915163Y-114328721D02*
X202915163Y-114423959D01*
X202915163Y-114423959D02*
X203391353Y-114519197D01*
X202058020Y-114852531D02*
X202058020Y-113852531D01*
X202058020Y-114804912D02*
X202153258Y-114852531D01*
X202153258Y-114852531D02*
X202343734Y-114852531D01*
X202343734Y-114852531D02*
X202438972Y-114804912D01*
X202438972Y-114804912D02*
X202486591Y-114757292D01*
X202486591Y-114757292D02*
X202534210Y-114662054D01*
X202534210Y-114662054D02*
X202534210Y-114376340D01*
X202534210Y-114376340D02*
X202486591Y-114281102D01*
X202486591Y-114281102D02*
X202438972Y-114233483D01*
X202438972Y-114233483D02*
X202343734Y-114185864D01*
X202343734Y-114185864D02*
X202153258Y-114185864D01*
X202153258Y-114185864D02*
X202058020Y-114233483D01*
X200819924Y-114757292D02*
X200772305Y-114804912D01*
X200772305Y-114804912D02*
X200819924Y-114852531D01*
X200819924Y-114852531D02*
X200867543Y-114804912D01*
X200867543Y-114804912D02*
X200819924Y-114757292D01*
X200819924Y-114757292D02*
X200819924Y-114852531D01*
X200819924Y-114233483D02*
X200772305Y-114281102D01*
X200772305Y-114281102D02*
X200819924Y-114328721D01*
X200819924Y-114328721D02*
X200867543Y-114281102D01*
X200867543Y-114281102D02*
X200819924Y-114233483D01*
X200819924Y-114233483D02*
X200819924Y-114328721D01*
X199153258Y-113852531D02*
X199343734Y-113852531D01*
X199343734Y-113852531D02*
X199438972Y-113900150D01*
X199438972Y-113900150D02*
X199486591Y-113947769D01*
X199486591Y-113947769D02*
X199581829Y-114090626D01*
X199581829Y-114090626D02*
X199629448Y-114281102D01*
X199629448Y-114281102D02*
X199629448Y-114662054D01*
X199629448Y-114662054D02*
X199581829Y-114757292D01*
X199581829Y-114757292D02*
X199534210Y-114804912D01*
X199534210Y-114804912D02*
X199438972Y-114852531D01*
X199438972Y-114852531D02*
X199248496Y-114852531D01*
X199248496Y-114852531D02*
X199153258Y-114804912D01*
X199153258Y-114804912D02*
X199105639Y-114757292D01*
X199105639Y-114757292D02*
X199058020Y-114662054D01*
X199058020Y-114662054D02*
X199058020Y-114423959D01*
X199058020Y-114423959D02*
X199105639Y-114328721D01*
X199105639Y-114328721D02*
X199153258Y-114281102D01*
X199153258Y-114281102D02*
X199248496Y-114233483D01*
X199248496Y-114233483D02*
X199438972Y-114233483D01*
X199438972Y-114233483D02*
X199534210Y-114281102D01*
X199534210Y-114281102D02*
X199581829Y-114328721D01*
X199581829Y-114328721D02*
X199629448Y-114423959D01*
X198629448Y-114471578D02*
X197867544Y-114471578D01*
X196867544Y-114852531D02*
X197438972Y-114852531D01*
X197153258Y-114852531D02*
X197153258Y-113852531D01*
X197153258Y-113852531D02*
X197248496Y-113995388D01*
X197248496Y-113995388D02*
X197343734Y-114090626D01*
X197343734Y-114090626D02*
X197438972Y-114138245D01*
X196486591Y-113947769D02*
X196438972Y-113900150D01*
X196438972Y-113900150D02*
X196343734Y-113852531D01*
X196343734Y-113852531D02*
X196105639Y-113852531D01*
X196105639Y-113852531D02*
X196010401Y-113900150D01*
X196010401Y-113900150D02*
X195962782Y-113947769D01*
X195962782Y-113947769D02*
X195915163Y-114043007D01*
X195915163Y-114043007D02*
X195915163Y-114138245D01*
X195915163Y-114138245D02*
X195962782Y-114281102D01*
X195962782Y-114281102D02*
X196534210Y-114852531D01*
X196534210Y-114852531D02*
X195915163Y-114852531D01*
X195486591Y-114471578D02*
X194724687Y-114471578D01*
X194296115Y-113947769D02*
X194248496Y-113900150D01*
X194248496Y-113900150D02*
X194153258Y-113852531D01*
X194153258Y-113852531D02*
X193915163Y-113852531D01*
X193915163Y-113852531D02*
X193819925Y-113900150D01*
X193819925Y-113900150D02*
X193772306Y-113947769D01*
X193772306Y-113947769D02*
X193724687Y-114043007D01*
X193724687Y-114043007D02*
X193724687Y-114138245D01*
X193724687Y-114138245D02*
X193772306Y-114281102D01*
X193772306Y-114281102D02*
X194343734Y-114852531D01*
X194343734Y-114852531D02*
X193724687Y-114852531D01*
X193105639Y-113852531D02*
X193010401Y-113852531D01*
X193010401Y-113852531D02*
X192915163Y-113900150D01*
X192915163Y-113900150D02*
X192867544Y-113947769D01*
X192867544Y-113947769D02*
X192819925Y-114043007D01*
X192819925Y-114043007D02*
X192772306Y-114233483D01*
X192772306Y-114233483D02*
X192772306Y-114471578D01*
X192772306Y-114471578D02*
X192819925Y-114662054D01*
X192819925Y-114662054D02*
X192867544Y-114757292D01*
X192867544Y-114757292D02*
X192915163Y-114804912D01*
X192915163Y-114804912D02*
X193010401Y-114852531D01*
X193010401Y-114852531D02*
X193105639Y-114852531D01*
X193105639Y-114852531D02*
X193200877Y-114804912D01*
X193200877Y-114804912D02*
X193248496Y-114757292D01*
X193248496Y-114757292D02*
X193296115Y-114662054D01*
X193296115Y-114662054D02*
X193343734Y-114471578D01*
X193343734Y-114471578D02*
X193343734Y-114233483D01*
X193343734Y-114233483D02*
X193296115Y-114043007D01*
X193296115Y-114043007D02*
X193248496Y-113947769D01*
X193248496Y-113947769D02*
X193200877Y-113900150D01*
X193200877Y-113900150D02*
X193105639Y-113852531D01*
X192391353Y-113947769D02*
X192343734Y-113900150D01*
X192343734Y-113900150D02*
X192248496Y-113852531D01*
X192248496Y-113852531D02*
X192010401Y-113852531D01*
X192010401Y-113852531D02*
X191915163Y-113900150D01*
X191915163Y-113900150D02*
X191867544Y-113947769D01*
X191867544Y-113947769D02*
X191819925Y-114043007D01*
X191819925Y-114043007D02*
X191819925Y-114138245D01*
X191819925Y-114138245D02*
X191867544Y-114281102D01*
X191867544Y-114281102D02*
X192438972Y-114852531D01*
X192438972Y-114852531D02*
X191819925Y-114852531D01*
X190915163Y-113852531D02*
X191391353Y-113852531D01*
X191391353Y-113852531D02*
X191438972Y-114328721D01*
X191438972Y-114328721D02*
X191391353Y-114281102D01*
X191391353Y-114281102D02*
X191296115Y-114233483D01*
X191296115Y-114233483D02*
X191058020Y-114233483D01*
X191058020Y-114233483D02*
X190962782Y-114281102D01*
X190962782Y-114281102D02*
X190915163Y-114328721D01*
X190915163Y-114328721D02*
X190867544Y-114423959D01*
X190867544Y-114423959D02*
X190867544Y-114662054D01*
X190867544Y-114662054D02*
X190915163Y-114757292D01*
X190915163Y-114757292D02*
X190962782Y-114804912D01*
X190962782Y-114804912D02*
X191058020Y-114852531D01*
X191058020Y-114852531D02*
X191296115Y-114852531D01*
X191296115Y-114852531D02*
X191391353Y-114804912D01*
X191391353Y-114804912D02*
X191438972Y-114757292D01*
X207962782Y-115938665D02*
X207819925Y-115986284D01*
X207819925Y-115986284D02*
X207772306Y-116033903D01*
X207772306Y-116033903D02*
X207724687Y-116129141D01*
X207724687Y-116129141D02*
X207724687Y-116271998D01*
X207724687Y-116271998D02*
X207772306Y-116367236D01*
X207772306Y-116367236D02*
X207819925Y-116414856D01*
X207819925Y-116414856D02*
X207915163Y-116462475D01*
X207915163Y-116462475D02*
X208296115Y-116462475D01*
X208296115Y-116462475D02*
X208296115Y-115462475D01*
X208296115Y-115462475D02*
X207962782Y-115462475D01*
X207962782Y-115462475D02*
X207867544Y-115510094D01*
X207867544Y-115510094D02*
X207819925Y-115557713D01*
X207819925Y-115557713D02*
X207772306Y-115652951D01*
X207772306Y-115652951D02*
X207772306Y-115748189D01*
X207772306Y-115748189D02*
X207819925Y-115843427D01*
X207819925Y-115843427D02*
X207867544Y-115891046D01*
X207867544Y-115891046D02*
X207962782Y-115938665D01*
X207962782Y-115938665D02*
X208296115Y-115938665D01*
X207391353Y-115795808D02*
X207153258Y-116462475D01*
X206915163Y-115795808D02*
X207153258Y-116462475D01*
X207153258Y-116462475D02*
X207248496Y-116700570D01*
X207248496Y-116700570D02*
X207296115Y-116748189D01*
X207296115Y-116748189D02*
X207391353Y-116795808D01*
X201200875Y-116367236D02*
X201153256Y-116414856D01*
X201153256Y-116414856D02*
X201200875Y-116462475D01*
X201200875Y-116462475D02*
X201248494Y-116414856D01*
X201248494Y-116414856D02*
X201200875Y-116367236D01*
X201200875Y-116367236D02*
X201200875Y-116462475D01*
X201200875Y-115843427D02*
X201153256Y-115891046D01*
X201153256Y-115891046D02*
X201200875Y-115938665D01*
X201200875Y-115938665D02*
X201248494Y-115891046D01*
X201248494Y-115891046D02*
X201200875Y-115843427D01*
X201200875Y-115843427D02*
X201200875Y-115938665D01*
X199962780Y-116462475D02*
X199962780Y-115462475D01*
X199962780Y-115462475D02*
X199391352Y-116462475D01*
X199391352Y-116462475D02*
X199391352Y-115462475D01*
X198915161Y-116462475D02*
X198915161Y-115795808D01*
X198915161Y-115462475D02*
X198962780Y-115510094D01*
X198962780Y-115510094D02*
X198915161Y-115557713D01*
X198915161Y-115557713D02*
X198867542Y-115510094D01*
X198867542Y-115510094D02*
X198915161Y-115462475D01*
X198915161Y-115462475D02*
X198915161Y-115557713D01*
X198438971Y-116462475D02*
X198438971Y-115462475D01*
X198343733Y-116081522D02*
X198058019Y-116462475D01*
X198058019Y-115795808D02*
X198438971Y-116176760D01*
X197486590Y-116462475D02*
X197581828Y-116414856D01*
X197581828Y-116414856D02*
X197629447Y-116367236D01*
X197629447Y-116367236D02*
X197677066Y-116271998D01*
X197677066Y-116271998D02*
X197677066Y-115986284D01*
X197677066Y-115986284D02*
X197629447Y-115891046D01*
X197629447Y-115891046D02*
X197581828Y-115843427D01*
X197581828Y-115843427D02*
X197486590Y-115795808D01*
X197486590Y-115795808D02*
X197343733Y-115795808D01*
X197343733Y-115795808D02*
X197248495Y-115843427D01*
X197248495Y-115843427D02*
X197200876Y-115891046D01*
X197200876Y-115891046D02*
X197153257Y-115986284D01*
X197153257Y-115986284D02*
X197153257Y-116271998D01*
X197153257Y-116271998D02*
X197200876Y-116367236D01*
X197200876Y-116367236D02*
X197248495Y-116414856D01*
X197248495Y-116414856D02*
X197343733Y-116462475D01*
X197343733Y-116462475D02*
X197486590Y-116462475D01*
X196867542Y-116081522D02*
X196819923Y-116033903D01*
X196819923Y-116033903D02*
X196724685Y-115986284D01*
X196724685Y-115986284D02*
X196534209Y-116081522D01*
X196534209Y-116081522D02*
X196438971Y-116033903D01*
X196438971Y-116033903D02*
X196391352Y-115986284D01*
X208438972Y-117072419D02*
X208105639Y-118072419D01*
X208105639Y-118072419D02*
X207772306Y-117072419D01*
X207058020Y-118024800D02*
X207153258Y-118072419D01*
X207153258Y-118072419D02*
X207343734Y-118072419D01*
X207343734Y-118072419D02*
X207438972Y-118024800D01*
X207438972Y-118024800D02*
X207486591Y-117929561D01*
X207486591Y-117929561D02*
X207486591Y-117548609D01*
X207486591Y-117548609D02*
X207438972Y-117453371D01*
X207438972Y-117453371D02*
X207343734Y-117405752D01*
X207343734Y-117405752D02*
X207153258Y-117405752D01*
X207153258Y-117405752D02*
X207058020Y-117453371D01*
X207058020Y-117453371D02*
X207010401Y-117548609D01*
X207010401Y-117548609D02*
X207010401Y-117643847D01*
X207010401Y-117643847D02*
X207486591Y-117739085D01*
X206581829Y-118072419D02*
X206581829Y-117405752D01*
X206581829Y-117596228D02*
X206534210Y-117500990D01*
X206534210Y-117500990D02*
X206486591Y-117453371D01*
X206486591Y-117453371D02*
X206391353Y-117405752D01*
X206391353Y-117405752D02*
X206296115Y-117405752D01*
X206010400Y-118024800D02*
X205915162Y-118072419D01*
X205915162Y-118072419D02*
X205724686Y-118072419D01*
X205724686Y-118072419D02*
X205629448Y-118024800D01*
X205629448Y-118024800D02*
X205581829Y-117929561D01*
X205581829Y-117929561D02*
X205581829Y-117881942D01*
X205581829Y-117881942D02*
X205629448Y-117786704D01*
X205629448Y-117786704D02*
X205724686Y-117739085D01*
X205724686Y-117739085D02*
X205867543Y-117739085D01*
X205867543Y-117739085D02*
X205962781Y-117691466D01*
X205962781Y-117691466D02*
X206010400Y-117596228D01*
X206010400Y-117596228D02*
X206010400Y-117548609D01*
X206010400Y-117548609D02*
X205962781Y-117453371D01*
X205962781Y-117453371D02*
X205867543Y-117405752D01*
X205867543Y-117405752D02*
X205724686Y-117405752D01*
X205724686Y-117405752D02*
X205629448Y-117453371D01*
X205153257Y-118072419D02*
X205153257Y-117405752D01*
X205153257Y-117072419D02*
X205200876Y-117120038D01*
X205200876Y-117120038D02*
X205153257Y-117167657D01*
X205153257Y-117167657D02*
X205105638Y-117120038D01*
X205105638Y-117120038D02*
X205153257Y-117072419D01*
X205153257Y-117072419D02*
X205153257Y-117167657D01*
X204534210Y-118072419D02*
X204629448Y-118024800D01*
X204629448Y-118024800D02*
X204677067Y-117977180D01*
X204677067Y-117977180D02*
X204724686Y-117881942D01*
X204724686Y-117881942D02*
X204724686Y-117596228D01*
X204724686Y-117596228D02*
X204677067Y-117500990D01*
X204677067Y-117500990D02*
X204629448Y-117453371D01*
X204629448Y-117453371D02*
X204534210Y-117405752D01*
X204534210Y-117405752D02*
X204391353Y-117405752D01*
X204391353Y-117405752D02*
X204296115Y-117453371D01*
X204296115Y-117453371D02*
X204248496Y-117500990D01*
X204248496Y-117500990D02*
X204200877Y-117596228D01*
X204200877Y-117596228D02*
X204200877Y-117881942D01*
X204200877Y-117881942D02*
X204248496Y-117977180D01*
X204248496Y-117977180D02*
X204296115Y-118024800D01*
X204296115Y-118024800D02*
X204391353Y-118072419D01*
X204391353Y-118072419D02*
X204534210Y-118072419D01*
X203772305Y-117405752D02*
X203772305Y-118072419D01*
X203772305Y-117500990D02*
X203724686Y-117453371D01*
X203724686Y-117453371D02*
X203629448Y-117405752D01*
X203629448Y-117405752D02*
X203486591Y-117405752D01*
X203486591Y-117405752D02*
X203391353Y-117453371D01*
X203391353Y-117453371D02*
X203343734Y-117548609D01*
X203343734Y-117548609D02*
X203343734Y-118072419D01*
X201343733Y-117977180D02*
X201296114Y-118024800D01*
X201296114Y-118024800D02*
X201343733Y-118072419D01*
X201343733Y-118072419D02*
X201391352Y-118024800D01*
X201391352Y-118024800D02*
X201343733Y-117977180D01*
X201343733Y-117977180D02*
X201343733Y-118072419D01*
X201343733Y-117453371D02*
X201296114Y-117500990D01*
X201296114Y-117500990D02*
X201343733Y-117548609D01*
X201343733Y-117548609D02*
X201391352Y-117500990D01*
X201391352Y-117500990D02*
X201343733Y-117453371D01*
X201343733Y-117453371D02*
X201343733Y-117548609D01*
X199581829Y-118072419D02*
X200153257Y-118072419D01*
X199867543Y-118072419D02*
X199867543Y-117072419D01*
X199867543Y-117072419D02*
X199962781Y-117215276D01*
X199962781Y-117215276D02*
X200058019Y-117310514D01*
X200058019Y-117310514D02*
X200153257Y-117358133D01*
X199153257Y-117977180D02*
X199105638Y-118024800D01*
X199105638Y-118024800D02*
X199153257Y-118072419D01*
X199153257Y-118072419D02*
X199200876Y-118024800D01*
X199200876Y-118024800D02*
X199153257Y-117977180D01*
X199153257Y-117977180D02*
X199153257Y-118072419D01*
X198248496Y-117405752D02*
X198248496Y-118072419D01*
X198486591Y-117024800D02*
X198724686Y-117739085D01*
X198724686Y-117739085D02*
X198105639Y-117739085D01*
X197724686Y-117977180D02*
X197677067Y-118024800D01*
X197677067Y-118024800D02*
X197724686Y-118072419D01*
X197724686Y-118072419D02*
X197772305Y-118024800D01*
X197772305Y-118024800D02*
X197724686Y-117977180D01*
X197724686Y-117977180D02*
X197724686Y-118072419D01*
X196724687Y-118072419D02*
X197296115Y-118072419D01*
X197010401Y-118072419D02*
X197010401Y-117072419D01*
X197010401Y-117072419D02*
X197105639Y-117215276D01*
X197105639Y-117215276D02*
X197200877Y-117310514D01*
X197200877Y-117310514D02*
X197296115Y-117358133D01*
D11*
%TO.C,G\u002A\u002A\u002A*%
G36*
X108720738Y-89748488D02*
G01*
X108442384Y-90066991D01*
X108369012Y-90150153D01*
X107961174Y-90618484D01*
X107659514Y-90980771D01*
X107658111Y-90982622D01*
X107444667Y-91264200D01*
X107297266Y-91495959D01*
X107197948Y-91703235D01*
X107127348Y-91913216D01*
X107089369Y-92055811D01*
X107065231Y-92146438D01*
X107016058Y-92372877D01*
X107010033Y-92473242D01*
X107013186Y-92473368D01*
X107085917Y-92389173D01*
X107234999Y-92178247D01*
X107428439Y-91887777D01*
X107631853Y-91887777D01*
X107678890Y-91934814D01*
X107725927Y-91887777D01*
X107678890Y-91840740D01*
X107631853Y-91887777D01*
X107428439Y-91887777D01*
X107440701Y-91869364D01*
X107683292Y-91491303D01*
X107692614Y-91476537D01*
X107966992Y-91041583D01*
X108157417Y-90741416D01*
X108280735Y-90552932D01*
X108353797Y-90453028D01*
X108393450Y-90418599D01*
X108416544Y-90426541D01*
X108439926Y-90453751D01*
X108447093Y-90504311D01*
X108425628Y-90707446D01*
X108369838Y-91024533D01*
X108286451Y-91413487D01*
X108229633Y-91666816D01*
X108187221Y-91873150D01*
X108159228Y-92009337D01*
X108117964Y-92250543D01*
X108113378Y-92349652D01*
X108114454Y-92350086D01*
X108219199Y-92321627D01*
X108474799Y-92233799D01*
X108858374Y-92094994D01*
X109347044Y-91913604D01*
X109917929Y-91698020D01*
X110548149Y-91456635D01*
X110861572Y-91335949D01*
X111411456Y-91335949D01*
X111488890Y-91370370D01*
X111538692Y-91363581D01*
X111551606Y-91307654D01*
X111537817Y-91296395D01*
X111426174Y-91307654D01*
X111411456Y-91335949D01*
X110861572Y-91335949D01*
X110992243Y-91285633D01*
X111139578Y-91229259D01*
X111677038Y-91229259D01*
X111724075Y-91276296D01*
X111771112Y-91229259D01*
X111724075Y-91182222D01*
X111677038Y-91229259D01*
X111139578Y-91229259D01*
X111385442Y-91135185D01*
X112335556Y-91135185D01*
X112382593Y-91182222D01*
X112429630Y-91135185D01*
X112382593Y-91088148D01*
X112335556Y-91135185D01*
X111385442Y-91135185D01*
X111653296Y-91032697D01*
X112167500Y-90839282D01*
X112552951Y-90699494D01*
X112827743Y-90607440D01*
X113009970Y-90557226D01*
X113117730Y-90542958D01*
X113169115Y-90558742D01*
X113182223Y-90598685D01*
X113178323Y-90631292D01*
X113072946Y-90800202D01*
X112819717Y-91020316D01*
X112649771Y-91135185D01*
X112510591Y-91229259D01*
X112413167Y-91295109D01*
X112391866Y-91307654D01*
X112058490Y-91503992D01*
X111847826Y-91628060D01*
X111118223Y-92022644D01*
X110218890Y-92482340D01*
X109963040Y-92610487D01*
X109331709Y-92928930D01*
X108836149Y-93184875D01*
X108451772Y-93393450D01*
X108178697Y-93555149D01*
X108153992Y-93569778D01*
X107918219Y-93728986D01*
X107917982Y-93729174D01*
X107719867Y-93886199D01*
X107534348Y-94056544D01*
X107337073Y-94255144D01*
X107119598Y-94484795D01*
X107092714Y-94517195D01*
X106840912Y-94820662D01*
X106695287Y-95092602D01*
X106674866Y-95336215D01*
X106771790Y-95587102D01*
X106978198Y-95880864D01*
X107003976Y-95912965D01*
X107224063Y-96147947D01*
X107428820Y-96313384D01*
X107503827Y-96373987D01*
X107881104Y-96618572D01*
X108393733Y-96909192D01*
X108582881Y-97011040D01*
X109072058Y-97257373D01*
X109442501Y-97407959D01*
X109722233Y-97470076D01*
X109939276Y-97451003D01*
X110121652Y-97358020D01*
X110174469Y-97309424D01*
X110238830Y-97190632D01*
X110283154Y-96990887D01*
X110294265Y-96877520D01*
X110475423Y-96877520D01*
X110483625Y-96981649D01*
X110550130Y-96956763D01*
X110683812Y-96832686D01*
X110721016Y-96790081D01*
X110794628Y-96662606D01*
X110791236Y-96504733D01*
X110714621Y-96244229D01*
X110579562Y-95839054D01*
X110514434Y-96393192D01*
X110489142Y-96642418D01*
X110475423Y-96877520D01*
X110294265Y-96877520D01*
X110314168Y-96674458D01*
X110338597Y-96205612D01*
X110359303Y-95789683D01*
X110374114Y-95622767D01*
X110755643Y-95622767D01*
X110768068Y-95815370D01*
X110800733Y-95831328D01*
X110815517Y-95697777D01*
X110802404Y-95568367D01*
X110768068Y-95580185D01*
X110755643Y-95622767D01*
X110374114Y-95622767D01*
X110389691Y-95447216D01*
X110435687Y-95210124D01*
X110506363Y-95034048D01*
X110610790Y-94874629D01*
X110662000Y-94808732D01*
X110817138Y-94637524D01*
X110917240Y-94568888D01*
X110922619Y-94573197D01*
X110950120Y-94699369D01*
X110980149Y-94979533D01*
X111010537Y-95385639D01*
X111028235Y-95697777D01*
X111039114Y-95889639D01*
X111063713Y-96463483D01*
X111070984Y-96662606D01*
X111105574Y-97609897D01*
X111132893Y-98358078D01*
X111183694Y-98413190D01*
X111511021Y-98768298D01*
X111889148Y-99178518D01*
X112606241Y-99175526D01*
X112865400Y-99175071D01*
X113139419Y-99165264D01*
X113341916Y-99124377D01*
X113483494Y-99029973D01*
X113492534Y-99013099D01*
X114110561Y-99013099D01*
X114401258Y-99189882D01*
X114526051Y-99265391D01*
X114675487Y-99346008D01*
X114751781Y-99353511D01*
X114812840Y-99303950D01*
X114851746Y-99228687D01*
X114874210Y-99051692D01*
X114854434Y-98879572D01*
X114795520Y-98802222D01*
X114789342Y-98802467D01*
X114641378Y-98835627D01*
X114413023Y-98907660D01*
X114110561Y-99013099D01*
X113492534Y-99013099D01*
X113574760Y-98859618D01*
X113603293Y-98710892D01*
X114002428Y-98710892D01*
X114025102Y-98782419D01*
X114105614Y-98793737D01*
X114140696Y-98790930D01*
X114357919Y-98752037D01*
X114599150Y-98686816D01*
X114794868Y-98616250D01*
X114875556Y-98561325D01*
X114837260Y-98412799D01*
X114729869Y-98174088D01*
X114623170Y-97986795D01*
X114899554Y-97986795D01*
X114919979Y-98123878D01*
X114978783Y-98311001D01*
X115046843Y-98441118D01*
X115076084Y-98445853D01*
X115242963Y-98399820D01*
X115515861Y-98288310D01*
X115853282Y-98127463D01*
X116595822Y-97751578D01*
X116474963Y-97630719D01*
X116877180Y-97630719D01*
X116887090Y-97629983D01*
X117019075Y-97586263D01*
X117269920Y-97490764D01*
X117596996Y-97359544D01*
X118295844Y-97073366D01*
X117738107Y-96914963D01*
X117474676Y-96848726D01*
X117234672Y-96808132D01*
X117118558Y-96815131D01*
X117103444Y-96835542D01*
X117033870Y-96996905D01*
X116956478Y-97244710D01*
X116933629Y-97331827D01*
X116886067Y-97540200D01*
X116877180Y-97630719D01*
X116474963Y-97630719D01*
X116347967Y-97503723D01*
X116100112Y-97255868D01*
X115478563Y-97562368D01*
X115336029Y-97633234D01*
X115075289Y-97773932D01*
X114940561Y-97880965D01*
X114899554Y-97986795D01*
X114623170Y-97986795D01*
X114595432Y-97938105D01*
X114476580Y-97787527D01*
X114405703Y-97745410D01*
X114330291Y-97776916D01*
X114248861Y-97929982D01*
X114138917Y-98234378D01*
X114039908Y-98540250D01*
X114002428Y-98710892D01*
X113603293Y-98710892D01*
X113626319Y-98590875D01*
X113648775Y-98201310D01*
X113652734Y-97668487D01*
X113652718Y-97665599D01*
X113860587Y-97665599D01*
X113887778Y-98378888D01*
X114011785Y-98002592D01*
X114059155Y-97800850D01*
X114101478Y-97417970D01*
X114104773Y-97014814D01*
X114099226Y-96907434D01*
X114080887Y-96634329D01*
X114057295Y-96520170D01*
X114018255Y-96542240D01*
X113953576Y-96677821D01*
X113905253Y-96845314D01*
X113863419Y-97209612D01*
X113860587Y-97665599D01*
X113652718Y-97665599D01*
X113648800Y-96969970D01*
X113648058Y-96805176D01*
X113648161Y-96234490D01*
X113650843Y-95914148D01*
X113840741Y-95914148D01*
X113841277Y-95973296D01*
X113853753Y-96179082D01*
X113877580Y-96262222D01*
X113880301Y-96262086D01*
X113941782Y-96177031D01*
X113978151Y-95992628D01*
X113980525Y-95793772D01*
X113940023Y-95665355D01*
X113911796Y-95644014D01*
X113857698Y-95692469D01*
X113840741Y-95914148D01*
X113650843Y-95914148D01*
X113652320Y-95737714D01*
X113660029Y-95343406D01*
X113670783Y-95080121D01*
X113684077Y-94976417D01*
X113717106Y-94987792D01*
X113823426Y-95114275D01*
X113965537Y-95337614D01*
X114025704Y-95449251D01*
X114139201Y-95740356D01*
X114150343Y-95793772D01*
X114214522Y-96101450D01*
X114265782Y-96591481D01*
X114270158Y-96647718D01*
X114306099Y-97014814D01*
X114309954Y-97054186D01*
X114358895Y-97319358D01*
X114428004Y-97485339D01*
X114528304Y-97594233D01*
X114591372Y-97640856D01*
X114698340Y-97685212D01*
X114834519Y-97669737D01*
X115045668Y-97585163D01*
X115377549Y-97422223D01*
X116029059Y-97094127D01*
X116014975Y-96938707D01*
X116199205Y-96938707D01*
X116218781Y-97121893D01*
X116286667Y-97249999D01*
X116360896Y-97242709D01*
X116361855Y-97104455D01*
X116286667Y-96873703D01*
X116244264Y-96782764D01*
X116210606Y-96773839D01*
X116199205Y-96938707D01*
X116014975Y-96938707D01*
X115964318Y-96379683D01*
X115959951Y-96333156D01*
X115915666Y-95969285D01*
X115863000Y-95672209D01*
X115834613Y-95576895D01*
X116072364Y-95576895D01*
X116105421Y-95727588D01*
X116184068Y-96000086D01*
X116299359Y-96361541D01*
X116382147Y-96606424D01*
X116507318Y-96956000D01*
X116565651Y-97104455D01*
X116607996Y-97212220D01*
X116667871Y-97332127D01*
X116693624Y-97339699D01*
X116772810Y-97245743D01*
X116857144Y-97031778D01*
X116876545Y-96964757D01*
X116907224Y-96807579D01*
X116893928Y-96660110D01*
X116864545Y-96592703D01*
X117297500Y-96592703D01*
X117389145Y-96646686D01*
X117398699Y-96650161D01*
X117640349Y-96723336D01*
X117891356Y-96779348D01*
X118088397Y-96806347D01*
X118168149Y-96792481D01*
X118162303Y-96770816D01*
X118091937Y-96624842D01*
X118037030Y-96527079D01*
X118293239Y-96527079D01*
X118357815Y-96688392D01*
X118423627Y-96792481D01*
X118433173Y-96807579D01*
X118457958Y-96846779D01*
X118536823Y-96917746D01*
X118580890Y-96900903D01*
X118734310Y-96790764D01*
X118941922Y-96610668D01*
X119164227Y-96398990D01*
X119361729Y-96194109D01*
X119494930Y-96034401D01*
X119524333Y-95958243D01*
X119504710Y-95948052D01*
X119333244Y-95884189D01*
X119082257Y-95808644D01*
X118917084Y-95767055D01*
X118760029Y-95765662D01*
X118636871Y-95860886D01*
X118479915Y-96083633D01*
X118426999Y-96164809D01*
X118311626Y-96375705D01*
X118293239Y-96527079D01*
X118037030Y-96527079D01*
X117967430Y-96403153D01*
X117766711Y-96062960D01*
X117494167Y-96324074D01*
X117468984Y-96348301D01*
X117319440Y-96507597D01*
X117297500Y-96592703D01*
X116864545Y-96592703D01*
X116820683Y-96492079D01*
X116671516Y-96273216D01*
X116430454Y-95973250D01*
X116081524Y-95561911D01*
X116072364Y-95576895D01*
X115834613Y-95576895D01*
X115822822Y-95537304D01*
X116298627Y-95537304D01*
X116407620Y-95670899D01*
X116417998Y-95681244D01*
X116520382Y-95765713D01*
X116561401Y-95717786D01*
X116568890Y-95509629D01*
X116568873Y-95488889D01*
X116559916Y-95293079D01*
X116515442Y-95255513D01*
X116407620Y-95348359D01*
X116330715Y-95430371D01*
X116298627Y-95537304D01*
X115822822Y-95537304D01*
X115812424Y-95502393D01*
X115773713Y-95384589D01*
X115713613Y-95165624D01*
X116044228Y-95165624D01*
X116083822Y-95265360D01*
X116125146Y-95280194D01*
X116242550Y-95222682D01*
X116273258Y-95129197D01*
X116215230Y-95051584D01*
X116088754Y-95105468D01*
X116044228Y-95165624D01*
X115713613Y-95165624D01*
X115700452Y-95117672D01*
X115602281Y-94739494D01*
X115488153Y-94286688D01*
X115453320Y-94145555D01*
X115635880Y-94145555D01*
X115691746Y-94427777D01*
X115750771Y-94657434D01*
X115826131Y-94851110D01*
X115867479Y-94915328D01*
X115907414Y-94923702D01*
X115900466Y-94816933D01*
X115852375Y-94637474D01*
X115806339Y-94521851D01*
X116007326Y-94521851D01*
X116018915Y-94585538D01*
X116098519Y-94757036D01*
X116150893Y-94820901D01*
X116189712Y-94804073D01*
X116178123Y-94740387D01*
X116098519Y-94568888D01*
X116046146Y-94505023D01*
X116007326Y-94521851D01*
X115806339Y-94521851D01*
X115768882Y-94427777D01*
X115724548Y-94333703D01*
X115910371Y-94333703D01*
X115957408Y-94380740D01*
X116004445Y-94333703D01*
X115957408Y-94286666D01*
X115910371Y-94333703D01*
X115724548Y-94333703D01*
X115635880Y-94145555D01*
X115453320Y-94145555D01*
X115367019Y-93795884D01*
X115247834Y-93303715D01*
X115139549Y-92846812D01*
X115051118Y-92461807D01*
X114991495Y-92185331D01*
X114969630Y-92054017D01*
X114973644Y-92043668D01*
X115065073Y-92045024D01*
X115093566Y-92074456D01*
X115196874Y-92245957D01*
X115351673Y-92543281D01*
X115542392Y-92935934D01*
X115753464Y-93393419D01*
X115875451Y-93661234D01*
X116103975Y-94138562D01*
X116209741Y-94333703D01*
X116277808Y-94459289D01*
X116404707Y-94636973D01*
X116492426Y-94685173D01*
X116555749Y-94695516D01*
X116616550Y-94792578D01*
X116618943Y-94804073D01*
X116643851Y-94923702D01*
X116662575Y-95013631D01*
X116675089Y-95129197D01*
X116703409Y-95390728D01*
X116708808Y-95447458D01*
X116717532Y-95509629D01*
X116760862Y-95818430D01*
X116830434Y-96124433D01*
X116904022Y-96303998D01*
X116969381Y-96384750D01*
X117052297Y-96421369D01*
X117168857Y-96353948D01*
X117368722Y-96167951D01*
X117493441Y-96041682D01*
X117627780Y-95855960D01*
X117685483Y-95643047D01*
X117697778Y-95322732D01*
X117676320Y-95025590D01*
X117653428Y-94901283D01*
X117885927Y-94901283D01*
X117885927Y-95422661D01*
X117895169Y-95631082D01*
X117940719Y-95927604D01*
X118011529Y-96115810D01*
X118048937Y-96164358D01*
X118127219Y-96215857D01*
X118214987Y-96147272D01*
X118353914Y-95936818D01*
X118570698Y-95586054D01*
X118570435Y-95585791D01*
X119061853Y-95585791D01*
X119062529Y-95586054D01*
X119326680Y-95688821D01*
X119535483Y-95760201D01*
X119681787Y-95791851D01*
X119682038Y-95791850D01*
X119765154Y-95717613D01*
X119861650Y-95551217D01*
X119931498Y-95375034D01*
X119934670Y-95271442D01*
X119900861Y-95273338D01*
X119735666Y-95322985D01*
X119485186Y-95416644D01*
X119061853Y-95585791D01*
X118570435Y-95585791D01*
X118343826Y-95359183D01*
X118896630Y-95359183D01*
X118949970Y-95410425D01*
X118986238Y-95403550D01*
X119164972Y-95347702D01*
X119421793Y-95255793D01*
X119692662Y-95152030D01*
X119913543Y-95060622D01*
X120020397Y-95005776D01*
X120018423Y-94957667D01*
X119985673Y-94770275D01*
X119926608Y-94493335D01*
X119814445Y-93999268D01*
X119470719Y-94283466D01*
X119212375Y-94560577D01*
X118982540Y-94991609D01*
X118923688Y-95180209D01*
X118896630Y-95359183D01*
X118343826Y-95359183D01*
X118228312Y-95243669D01*
X117885927Y-94901283D01*
X117653428Y-94901283D01*
X117582640Y-94516895D01*
X117426486Y-93953594D01*
X117373910Y-93775075D01*
X117309195Y-93519205D01*
X117471875Y-93519205D01*
X117525785Y-93720154D01*
X117617179Y-93992040D01*
X117727856Y-94284049D01*
X117839615Y-94545365D01*
X117934257Y-94725176D01*
X118064734Y-94881409D01*
X118271125Y-95044023D01*
X118345201Y-95081589D01*
X118432845Y-95093374D01*
X118416490Y-94976777D01*
X118396947Y-94908042D01*
X118331838Y-94661788D01*
X118256134Y-94360498D01*
X118248271Y-94329359D01*
X118093802Y-93953394D01*
X117834823Y-93678461D01*
X117759103Y-93621764D01*
X117571905Y-93491874D01*
X117473937Y-93439999D01*
X117473648Y-93440005D01*
X117471875Y-93519205D01*
X117309195Y-93519205D01*
X117270840Y-93367557D01*
X117156262Y-92860788D01*
X117143255Y-92798593D01*
X117426687Y-92798593D01*
X117428968Y-92946525D01*
X117499218Y-93163103D01*
X117697778Y-93345925D01*
X117863750Y-93447789D01*
X117966944Y-93448805D01*
X117973433Y-93306220D01*
X117890526Y-93007186D01*
X117867919Y-92936477D01*
X117778121Y-92637518D01*
X117685974Y-92311110D01*
X117629828Y-92108662D01*
X117581818Y-91981065D01*
X117546934Y-92006902D01*
X117516635Y-92122962D01*
X117504356Y-92169999D01*
X117503396Y-92174102D01*
X117453725Y-92474056D01*
X117426687Y-92798593D01*
X117143255Y-92798593D01*
X117037959Y-92295116D01*
X116923714Y-91710886D01*
X116872398Y-91429040D01*
X117070675Y-91429040D01*
X117100781Y-91699629D01*
X117147412Y-92002248D01*
X117204881Y-92233267D01*
X117259182Y-92344896D01*
X117299340Y-92315379D01*
X117314378Y-92122962D01*
X117275457Y-91814086D01*
X117178908Y-91511481D01*
X117110867Y-91372669D01*
X117071428Y-91326337D01*
X117070675Y-91429040D01*
X116872398Y-91429040D01*
X116821310Y-91148445D01*
X116819116Y-91135185D01*
X117230289Y-91135185D01*
X117241878Y-91198871D01*
X117321482Y-91370370D01*
X117373856Y-91434235D01*
X117412675Y-91417407D01*
X117401086Y-91353720D01*
X117321482Y-91182222D01*
X117269109Y-91118357D01*
X117230289Y-91135185D01*
X116819116Y-91135185D01*
X116738528Y-90648140D01*
X116683152Y-90250317D01*
X116662964Y-89995324D01*
X116690060Y-89891264D01*
X116774622Y-89921257D01*
X116903859Y-90078705D01*
X117064687Y-90338808D01*
X117244022Y-90676764D01*
X117428778Y-91067773D01*
X117576462Y-91417407D01*
X117605872Y-91487035D01*
X117762218Y-91909748D01*
X117884733Y-92311110D01*
X118045019Y-92914965D01*
X118149748Y-93306220D01*
X118260641Y-93720506D01*
X118433249Y-94355832D01*
X118562004Y-94817910D01*
X118643032Y-95093374D01*
X118646072Y-95103708D01*
X118684614Y-95210191D01*
X118691999Y-95209884D01*
X118746675Y-95112867D01*
X118824203Y-94905615D01*
X118880381Y-94544666D01*
X118829669Y-94077601D01*
X119314863Y-94077601D01*
X119395268Y-94109973D01*
X119555526Y-93983326D01*
X119670983Y-93847513D01*
X119709936Y-93718602D01*
X119633109Y-93575277D01*
X119537920Y-93463601D01*
X119473130Y-93486332D01*
X119394344Y-93667774D01*
X119321795Y-93900868D01*
X119314863Y-94077601D01*
X118829669Y-94077601D01*
X118824653Y-94031401D01*
X118644556Y-93457696D01*
X118589249Y-93345925D01*
X118932775Y-93345925D01*
X118941366Y-93670335D01*
X118974192Y-93954381D01*
X119027884Y-94070523D01*
X119098539Y-94012087D01*
X119182251Y-93772399D01*
X119275838Y-93317273D01*
X119280108Y-92897530D01*
X119185889Y-92452222D01*
X119075790Y-92075925D01*
X119074711Y-92081557D01*
X119003687Y-92452222D01*
X118981159Y-92596268D01*
X118970455Y-92709483D01*
X118946074Y-92967375D01*
X118932775Y-93345925D01*
X118589249Y-93345925D01*
X118348359Y-92859108D01*
X118173997Y-92538127D01*
X118397771Y-92538127D01*
X118447567Y-92682167D01*
X118552842Y-92844407D01*
X118678729Y-92919060D01*
X118772959Y-92811980D01*
X118784765Y-92709483D01*
X118684732Y-92562505D01*
X118470580Y-92500699D01*
X118397771Y-92538127D01*
X118173997Y-92538127D01*
X118167909Y-92526919D01*
X118024075Y-92160942D01*
X118011842Y-92074034D01*
X118188248Y-92074034D01*
X118199507Y-92185678D01*
X118227803Y-92200396D01*
X118262223Y-92122962D01*
X118255434Y-92073160D01*
X118199507Y-92060246D01*
X118188248Y-92074034D01*
X118011842Y-92074034D01*
X118004758Y-92023702D01*
X118414108Y-92023702D01*
X118465464Y-92122962D01*
X118504906Y-92199194D01*
X118629757Y-92346649D01*
X118763654Y-92391141D01*
X118863640Y-92256379D01*
X118916178Y-92081557D01*
X118901177Y-91973031D01*
X118796207Y-92015131D01*
X118702042Y-92067726D01*
X118562590Y-92009403D01*
X118520073Y-91970802D01*
X118422994Y-91934965D01*
X118414108Y-92023702D01*
X118004758Y-92023702D01*
X117980001Y-91847812D01*
X117983230Y-91646123D01*
X118016936Y-91499547D01*
X118118204Y-91500178D01*
X118324077Y-91623914D01*
X118567459Y-91783384D01*
X118508915Y-91482803D01*
X118499035Y-91431967D01*
X118655575Y-91431967D01*
X118704156Y-91598096D01*
X118784783Y-91695784D01*
X118865037Y-91666617D01*
X118878364Y-91546736D01*
X118811615Y-91348795D01*
X118763283Y-91265494D01*
X118697708Y-91203476D01*
X118659824Y-91296858D01*
X118655575Y-91431967D01*
X118499035Y-91431967D01*
X118456011Y-91210581D01*
X118395859Y-90899999D01*
X118393942Y-90889800D01*
X118381628Y-90697333D01*
X118422816Y-90617777D01*
X118497608Y-90669202D01*
X118649609Y-90833566D01*
X118834367Y-91062704D01*
X119013661Y-91306600D01*
X119149268Y-91515240D01*
X119162977Y-91546736D01*
X119202964Y-91638609D01*
X119206303Y-91706031D01*
X119258398Y-92015012D01*
X119357974Y-92407081D01*
X119484760Y-92815184D01*
X119515598Y-92897530D01*
X119618485Y-93172268D01*
X119738877Y-93411283D01*
X119858992Y-93639983D01*
X119887923Y-93718602D01*
X119994364Y-94007848D01*
X120094241Y-94400661D01*
X120158786Y-94884916D01*
X120151895Y-95005776D01*
X120136747Y-95271442D01*
X120133159Y-95334358D01*
X119988557Y-95732327D01*
X119826427Y-95958243D01*
X119708098Y-96123125D01*
X119274905Y-96551052D01*
X118989403Y-96795211D01*
X118695384Y-97010547D01*
X118588537Y-97073366D01*
X118370797Y-97201382D01*
X117966539Y-97396325D01*
X117433511Y-97623987D01*
X117130550Y-97751578D01*
X116957741Y-97824356D01*
X116271853Y-98133071D01*
X115751305Y-98398678D01*
X115491163Y-98561325D01*
X115386306Y-98626884D01*
X115167069Y-98823398D01*
X115083804Y-98993925D01*
X115077771Y-99051692D01*
X115075385Y-99074545D01*
X115085049Y-99152771D01*
X115156144Y-99105732D01*
X115318989Y-98924473D01*
X115322161Y-98920864D01*
X115723507Y-98920864D01*
X115735295Y-99030862D01*
X115781517Y-99249073D01*
X115830697Y-99381397D01*
X115897825Y-99455777D01*
X115965668Y-99413102D01*
X116151025Y-99268957D01*
X116420224Y-99047380D01*
X116741868Y-98773740D01*
X116978114Y-98564428D01*
X117244037Y-98306956D01*
X117383710Y-98137101D01*
X117385278Y-98067869D01*
X117374448Y-98066506D01*
X117208780Y-98101956D01*
X116943913Y-98205185D01*
X116625330Y-98352845D01*
X116298514Y-98521590D01*
X116008950Y-98688073D01*
X115802120Y-98828946D01*
X115723507Y-98920864D01*
X115322161Y-98920864D01*
X115323368Y-98919491D01*
X115551622Y-98722794D01*
X115878728Y-98517639D01*
X116267341Y-98318770D01*
X116680119Y-98140929D01*
X117079718Y-97998859D01*
X117428795Y-97907305D01*
X117690006Y-97881008D01*
X117826008Y-97934711D01*
X117835601Y-97980235D01*
X117835551Y-98067869D01*
X117835485Y-98185212D01*
X117823752Y-98354956D01*
X117813302Y-98506147D01*
X117771663Y-98896820D01*
X117759332Y-98996322D01*
X117705278Y-99378984D01*
X117640008Y-99657857D01*
X117537853Y-99896329D01*
X117373146Y-100157788D01*
X117120220Y-100505623D01*
X116981723Y-100690132D01*
X116746686Y-100980841D01*
X116558957Y-101163977D01*
X116380410Y-101273209D01*
X116172922Y-101342204D01*
X116093321Y-101362828D01*
X115947431Y-101400627D01*
X115702612Y-101473718D01*
X115583368Y-101539032D01*
X115554361Y-101620379D01*
X115580255Y-101741573D01*
X115651706Y-101857300D01*
X115732232Y-101953719D01*
X115829383Y-102070044D01*
X116078966Y-102340689D01*
X116367468Y-102636301D01*
X116661901Y-102923941D01*
X116929280Y-103170676D01*
X117136617Y-103343568D01*
X117250927Y-103409682D01*
X117270088Y-103425571D01*
X117300856Y-103546923D01*
X117306875Y-103570661D01*
X117321482Y-103817584D01*
X117320584Y-103835185D01*
X117311217Y-104018721D01*
X117231087Y-104263896D01*
X117230130Y-104266825D01*
X117030644Y-104499621D01*
X116996472Y-104533209D01*
X116974740Y-104558987D01*
X116756290Y-104818103D01*
X116564855Y-105115976D01*
X116499369Y-105235606D01*
X116373866Y-105387366D01*
X116193369Y-105469192D01*
X115891434Y-105521050D01*
X115584521Y-105561151D01*
X115487816Y-105577521D01*
X115272555Y-105613960D01*
X115089158Y-105686483D01*
X115000427Y-105807969D01*
X114972460Y-106007668D01*
X114971352Y-106314827D01*
X114977129Y-106530614D01*
X114997365Y-106695579D01*
X115021529Y-106892572D01*
X115124212Y-107270875D01*
X115302307Y-107739259D01*
X115432687Y-108043145D01*
X115569550Y-108313965D01*
X115728944Y-108560186D01*
X115939295Y-108820400D01*
X116229029Y-109133199D01*
X116626570Y-109537177D01*
X116825255Y-109736903D01*
X117076879Y-109994585D01*
X117154242Y-110073811D01*
X117382923Y-110326155D01*
X117533963Y-110526262D01*
X117577815Y-110608518D01*
X117630029Y-110706459D01*
X117693788Y-110899075D01*
X117747907Y-111136436D01*
X117819082Y-111475087D01*
X117874215Y-111737407D01*
X117788603Y-111999299D01*
X117074650Y-114183333D01*
X116293487Y-116572969D01*
X116275086Y-116629259D01*
X114940321Y-117629556D01*
X114557488Y-117915355D01*
X114169860Y-118202192D01*
X113857494Y-118430526D01*
X113645383Y-118582104D01*
X113558519Y-118638676D01*
X113519084Y-118617894D01*
X113361633Y-118499111D01*
X113116707Y-118298114D01*
X112817016Y-118041255D01*
X112783598Y-118012200D01*
X112346117Y-117661097D01*
X111975214Y-117429947D01*
X111783616Y-117353491D01*
X112303165Y-117353491D01*
X112813250Y-117810450D01*
X112842911Y-117836936D01*
X113095745Y-118055451D01*
X113289968Y-118211029D01*
X113385621Y-118271482D01*
X113419167Y-118246926D01*
X113430985Y-118213100D01*
X113652593Y-118213100D01*
X113652652Y-118215660D01*
X113723149Y-118269546D01*
X113758909Y-118251534D01*
X113920838Y-118142814D01*
X114179433Y-117957403D01*
X114501294Y-117720406D01*
X114853022Y-117456929D01*
X115201219Y-117192077D01*
X115512485Y-116950955D01*
X115753421Y-116758667D01*
X115890628Y-116640319D01*
X115916683Y-116572969D01*
X115865955Y-116467499D01*
X115718330Y-116306817D01*
X115455981Y-116071632D01*
X115061083Y-115742656D01*
X114987628Y-115682711D01*
X114641120Y-115404869D01*
X114355625Y-115183897D01*
X114159015Y-115040954D01*
X114079160Y-114997199D01*
X114065653Y-115060275D01*
X114055211Y-115127079D01*
X114031579Y-115278260D01*
X113983040Y-115616102D01*
X113924968Y-116036612D01*
X113862296Y-116502601D01*
X113841331Y-116662100D01*
X113799957Y-116976879D01*
X113742885Y-117422258D01*
X113696012Y-117801547D01*
X113664270Y-118077557D01*
X113652593Y-118213100D01*
X113430985Y-118213100D01*
X113454074Y-118147010D01*
X113494631Y-117943786D01*
X113546361Y-117609413D01*
X113614784Y-117116050D01*
X113676085Y-116662100D01*
X112989625Y-117007796D01*
X112303165Y-117353491D01*
X111783616Y-117353491D01*
X111626611Y-117290839D01*
X111425558Y-117234123D01*
X111179726Y-117170451D01*
X111051078Y-117144991D01*
X111013660Y-117113713D01*
X110886148Y-116953310D01*
X111320462Y-116953310D01*
X111333689Y-116982633D01*
X111471878Y-117057544D01*
X111714898Y-117134542D01*
X111845268Y-117166962D01*
X112065532Y-117219392D01*
X112165547Y-117239554D01*
X112191760Y-117228569D01*
X112348898Y-117148691D01*
X112613467Y-117008464D01*
X112947038Y-116828122D01*
X113699630Y-116417876D01*
X113779793Y-115741384D01*
X113784176Y-115703696D01*
X113815089Y-115372994D01*
X113825056Y-115127079D01*
X113811830Y-115016767D01*
X113752729Y-115041801D01*
X113571808Y-115162091D01*
X113299210Y-115359308D01*
X112964655Y-115610349D01*
X112597861Y-115892116D01*
X112228547Y-116181507D01*
X111886431Y-116455423D01*
X111601232Y-116690762D01*
X111402670Y-116864424D01*
X111320462Y-116953310D01*
X110886148Y-116953310D01*
X110884272Y-116950950D01*
X110685320Y-116672826D01*
X110435720Y-116306078D01*
X110154387Y-115877444D01*
X109337292Y-114611573D01*
X109336542Y-114607846D01*
X109607408Y-114607846D01*
X109611514Y-114623340D01*
X109686246Y-114768201D01*
X109840522Y-115029887D01*
X110055511Y-115377122D01*
X110312381Y-115778631D01*
X110393582Y-115903379D01*
X110642098Y-116280943D01*
X110847067Y-116586042D01*
X110989091Y-116790077D01*
X111048773Y-116864444D01*
X111066631Y-116855412D01*
X111205170Y-116756422D01*
X111461136Y-116561348D01*
X111814138Y-116286542D01*
X112243782Y-115948357D01*
X112729677Y-115563144D01*
X113251431Y-115147257D01*
X113788651Y-114717047D01*
X113802761Y-114705697D01*
X114127570Y-114705697D01*
X114192100Y-114779469D01*
X114375625Y-114946365D01*
X114649664Y-115180982D01*
X114985674Y-115458289D01*
X115310860Y-115721252D01*
X115631164Y-115977911D01*
X115878016Y-116173141D01*
X116015271Y-116278161D01*
X116064543Y-116302728D01*
X116119801Y-116289330D01*
X116182154Y-116213271D01*
X116259823Y-116055081D01*
X116361034Y-115795288D01*
X116494010Y-115414423D01*
X116666975Y-114893015D01*
X116888154Y-114211593D01*
X117033153Y-113760329D01*
X117211518Y-113198069D01*
X117361714Y-112716227D01*
X117476181Y-112339412D01*
X117547362Y-112092233D01*
X117567696Y-111999299D01*
X117523034Y-112023405D01*
X117353112Y-112144474D01*
X117080200Y-112349289D01*
X116939376Y-112457201D01*
X116729378Y-112618120D01*
X116651993Y-112678148D01*
X116325726Y-112931236D01*
X115894322Y-113268907D01*
X115460247Y-113611404D01*
X115048579Y-113938994D01*
X114684398Y-114231949D01*
X114392784Y-114470538D01*
X114198814Y-114635031D01*
X114127570Y-114705697D01*
X113802761Y-114705697D01*
X114320945Y-114288868D01*
X114827920Y-113879070D01*
X115289186Y-113504007D01*
X115684349Y-113180031D01*
X115993017Y-112923494D01*
X116194798Y-112750749D01*
X116269299Y-112678148D01*
X116269188Y-112675625D01*
X116173389Y-112638293D01*
X115927502Y-112588884D01*
X115565875Y-112531637D01*
X115122857Y-112470793D01*
X114632797Y-112410589D01*
X114130043Y-112355266D01*
X113648945Y-112309063D01*
X113223850Y-112276218D01*
X112889107Y-112260972D01*
X112821151Y-112262846D01*
X112679818Y-112290609D01*
X112510398Y-112362666D01*
X112289210Y-112493767D01*
X111992567Y-112698663D01*
X111596785Y-112992105D01*
X111078181Y-113388845D01*
X111009447Y-113441934D01*
X110565133Y-113789791D01*
X110180115Y-114099090D01*
X109877050Y-114351052D01*
X109678595Y-114526897D01*
X109607408Y-114607846D01*
X109336542Y-114607846D01*
X109043784Y-113152597D01*
X109025342Y-113060745D01*
X108918891Y-112515364D01*
X108848361Y-112105428D01*
X108815426Y-111833503D01*
X108970842Y-111833503D01*
X108989059Y-111969773D01*
X109038539Y-112246921D01*
X109112901Y-112630548D01*
X109205768Y-113086255D01*
X109231336Y-113207867D01*
X109327865Y-113645789D01*
X109412960Y-114000340D01*
X109478197Y-114237798D01*
X109515149Y-114324444D01*
X109543959Y-114310002D01*
X109695596Y-114206291D01*
X109949757Y-114020804D01*
X110278313Y-113775150D01*
X110653134Y-113490942D01*
X111046089Y-113189790D01*
X111429050Y-112893305D01*
X111773886Y-112623097D01*
X112052468Y-112400777D01*
X112236664Y-112247957D01*
X112298347Y-112186246D01*
X112293197Y-112183993D01*
X112164893Y-112162082D01*
X111893553Y-112126470D01*
X111515829Y-112081133D01*
X111133506Y-112037483D01*
X112745385Y-112037483D01*
X112779119Y-112044183D01*
X112967002Y-112068208D01*
X113291229Y-112104858D01*
X113719476Y-112150532D01*
X114068895Y-112186246D01*
X114219419Y-112201631D01*
X114456145Y-112225530D01*
X114987027Y-112280352D01*
X115465202Y-112331316D01*
X115845822Y-112373594D01*
X116084039Y-112402358D01*
X116492892Y-112457201D01*
X116441265Y-112221921D01*
X116880935Y-112221921D01*
X116936141Y-112213979D01*
X117085665Y-112110909D01*
X117278216Y-111941081D01*
X117467818Y-111748900D01*
X117608491Y-111578768D01*
X117654259Y-111475087D01*
X117612909Y-111318353D01*
X117556904Y-111079185D01*
X117529670Y-110971326D01*
X117490996Y-110915031D01*
X117430904Y-110969937D01*
X117330725Y-111156136D01*
X117171794Y-111493723D01*
X117123043Y-111600142D01*
X116989210Y-111906960D01*
X116902901Y-112128256D01*
X116880935Y-112221921D01*
X116441265Y-112221921D01*
X116424242Y-112144341D01*
X116413074Y-112093787D01*
X116273989Y-111506297D01*
X116111458Y-110882051D01*
X116100731Y-110843703D01*
X116289975Y-110843703D01*
X116313929Y-110990807D01*
X116378095Y-111263520D01*
X116467870Y-111596296D01*
X116642463Y-112207777D01*
X117018349Y-111408148D01*
X117394234Y-110608518D01*
X117179371Y-110385132D01*
X116964508Y-110161746D01*
X116625591Y-110432169D01*
X116528649Y-110515564D01*
X116356600Y-110704086D01*
X116289975Y-110843703D01*
X116100731Y-110843703D01*
X115933363Y-110245361D01*
X115747585Y-109620540D01*
X115584503Y-109103260D01*
X115835301Y-109103260D01*
X115849331Y-109230373D01*
X115905249Y-109482592D01*
X115992813Y-109812678D01*
X116008733Y-109868642D01*
X116103588Y-110189827D01*
X116178715Y-110424506D01*
X116219049Y-110525220D01*
X116236157Y-110524831D01*
X116349817Y-110443826D01*
X116523967Y-110277052D01*
X116794587Y-109994585D01*
X116334632Y-109527608D01*
X116318006Y-109510776D01*
X116088547Y-109288826D01*
X115916419Y-109140647D01*
X115837776Y-109097533D01*
X115835301Y-109103260D01*
X115584503Y-109103260D01*
X115562006Y-109031901D01*
X115384507Y-108503755D01*
X115222970Y-108060416D01*
X115085277Y-107726196D01*
X114979308Y-107525407D01*
X114912946Y-107482363D01*
X114893051Y-107514802D01*
X114802584Y-107689730D01*
X114653391Y-107990975D01*
X114458260Y-108391659D01*
X114229984Y-108864903D01*
X113981352Y-109383827D01*
X113725156Y-109921552D01*
X113474185Y-110451199D01*
X113241231Y-110945888D01*
X113039083Y-111378741D01*
X112880532Y-111722877D01*
X112778370Y-111951417D01*
X112745385Y-112037483D01*
X111133506Y-112037483D01*
X111068375Y-112030047D01*
X110587846Y-111977188D01*
X110110896Y-111926532D01*
X109674177Y-111882053D01*
X109314345Y-111847729D01*
X109068053Y-111827534D01*
X108971955Y-111825445D01*
X108970842Y-111833503D01*
X108815426Y-111833503D01*
X108809993Y-111788649D01*
X108804322Y-111637239D01*
X108995927Y-111637239D01*
X110124816Y-111752929D01*
X110551925Y-111797179D01*
X111005512Y-111845199D01*
X111378613Y-111885775D01*
X111617873Y-111913182D01*
X111703552Y-111921752D01*
X111872098Y-111919835D01*
X111900095Y-111883488D01*
X111839028Y-111842072D01*
X111634715Y-111726109D01*
X111326338Y-111561642D01*
X110947742Y-111365641D01*
X110532771Y-111155078D01*
X110115269Y-110946923D01*
X109729079Y-110758148D01*
X109408046Y-110605723D01*
X109186013Y-110506618D01*
X109096825Y-110477805D01*
X109077722Y-110553295D01*
X109051742Y-110771575D01*
X109028828Y-111075841D01*
X108995927Y-111637239D01*
X108804322Y-111637239D01*
X108800034Y-111522740D01*
X108814726Y-111265412D01*
X108850314Y-110974379D01*
X108928201Y-110540154D01*
X109040226Y-110199109D01*
X109262694Y-110199109D01*
X109289582Y-110275975D01*
X109393725Y-110340777D01*
X109638071Y-110477073D01*
X109994491Y-110669543D01*
X110435179Y-110903172D01*
X110932330Y-111162949D01*
X110938225Y-111166008D01*
X111430368Y-111420277D01*
X111862460Y-111641403D01*
X112207816Y-111815902D01*
X112344854Y-111883488D01*
X112439754Y-111930292D01*
X112531589Y-111971089D01*
X112532008Y-111971013D01*
X112586093Y-111883753D01*
X112708660Y-111645079D01*
X112890511Y-111274318D01*
X113122447Y-110790793D01*
X113395266Y-110213830D01*
X113699771Y-109562753D01*
X114026760Y-108856886D01*
X114367036Y-108115555D01*
X114556692Y-107696329D01*
X114698559Y-107360206D01*
X114782313Y-107110621D01*
X114819253Y-106903702D01*
X114820674Y-106695579D01*
X114797874Y-106442380D01*
X114734445Y-105851057D01*
X114558212Y-105982025D01*
X112194969Y-107738279D01*
X111854559Y-107991842D01*
X111115164Y-108548253D01*
X110515779Y-109009482D01*
X110046223Y-109384420D01*
X109696318Y-109681960D01*
X109455881Y-109910994D01*
X109314733Y-110080413D01*
X109262694Y-110199109D01*
X109040226Y-110199109D01*
X109045091Y-110184298D01*
X109215545Y-109894530D01*
X109480740Y-109533921D01*
X109360247Y-108613071D01*
X109353844Y-108563410D01*
X109315162Y-108207415D01*
X109296606Y-107907399D01*
X109478320Y-107907399D01*
X109493333Y-108197949D01*
X109531837Y-108562407D01*
X109549438Y-108692695D01*
X109602513Y-109022402D01*
X109652364Y-109251910D01*
X109690132Y-109337827D01*
X109702982Y-109332382D01*
X109833137Y-109247168D01*
X110081554Y-109071604D01*
X110425733Y-108822489D01*
X110843175Y-108516623D01*
X111311379Y-108170806D01*
X111807847Y-107801838D01*
X112310077Y-107426519D01*
X112795570Y-107061649D01*
X113241827Y-106724027D01*
X113626348Y-106430454D01*
X113926633Y-106197730D01*
X114120182Y-106042653D01*
X114184496Y-105982025D01*
X114164447Y-105984065D01*
X114004703Y-106032257D01*
X113709501Y-106132727D01*
X113306979Y-106275048D01*
X112825276Y-106448793D01*
X112292533Y-106643534D01*
X111736888Y-106848844D01*
X111186481Y-107054295D01*
X110669450Y-107249460D01*
X110213935Y-107423912D01*
X109848076Y-107567224D01*
X109600010Y-107668967D01*
X109497878Y-107718715D01*
X109488743Y-107739024D01*
X109478320Y-107907399D01*
X109296606Y-107907399D01*
X109293359Y-107854901D01*
X109288700Y-107467718D01*
X109294927Y-107243003D01*
X109438481Y-107243003D01*
X109459209Y-107406594D01*
X109530083Y-107450076D01*
X109610773Y-107431972D01*
X109848481Y-107356900D01*
X110206335Y-107233151D01*
X110657339Y-107070995D01*
X111174493Y-106880700D01*
X111730801Y-106672533D01*
X112299264Y-106456764D01*
X112852885Y-106243661D01*
X113364666Y-106043491D01*
X113807610Y-105866524D01*
X114154719Y-105723028D01*
X114378994Y-105623271D01*
X114453438Y-105577521D01*
X114382844Y-105536655D01*
X114160570Y-105437262D01*
X113815812Y-105294257D01*
X113377848Y-105119736D01*
X112875954Y-104925793D01*
X111339604Y-104340622D01*
X111256374Y-104232351D01*
X111565601Y-104232351D01*
X112491505Y-104587324D01*
X112721735Y-104675836D01*
X113195089Y-104859052D01*
X113636710Y-105031410D01*
X113974553Y-105164852D01*
X114179802Y-105245626D01*
X114464453Y-105346516D01*
X114620812Y-105374722D01*
X114677740Y-105332668D01*
X114664094Y-105222777D01*
X114636057Y-105119061D01*
X114565633Y-104855990D01*
X114468363Y-104491226D01*
X114356422Y-104070370D01*
X114266678Y-103740747D01*
X114163984Y-103384613D01*
X114083663Y-103129916D01*
X114083436Y-103129357D01*
X114331553Y-103129357D01*
X114366969Y-103377050D01*
X114450436Y-103760599D01*
X114577933Y-104258518D01*
X114708789Y-104746149D01*
X114813839Y-105098641D01*
X114914040Y-105319365D01*
X114928378Y-105332668D01*
X115035981Y-105432503D01*
X115206250Y-105462235D01*
X115451437Y-105432742D01*
X115798128Y-105368204D01*
X115905451Y-105347626D01*
X116169208Y-105273339D01*
X116325552Y-105163234D01*
X116436484Y-104979565D01*
X116513627Y-104772883D01*
X116522069Y-104558987D01*
X116452958Y-104266954D01*
X116415409Y-104144897D01*
X116378508Y-104058833D01*
X116596660Y-104058833D01*
X116627708Y-104236355D01*
X116650067Y-104329219D01*
X116700612Y-104486376D01*
X116763770Y-104491889D01*
X116883694Y-104368564D01*
X116968770Y-104263896D01*
X116963898Y-104175787D01*
X116803270Y-104087120D01*
X116656781Y-104027732D01*
X116596660Y-104058833D01*
X116378508Y-104058833D01*
X116350454Y-103993404D01*
X116264855Y-103892079D01*
X116810167Y-103892079D01*
X116921244Y-103970233D01*
X117064167Y-103950881D01*
X117133334Y-103835185D01*
X117128505Y-103749524D01*
X117073105Y-103700371D01*
X116906383Y-103750968D01*
X116836442Y-103793372D01*
X116810167Y-103892079D01*
X116264855Y-103892079D01*
X116249956Y-103874443D01*
X116079521Y-103761461D01*
X115804757Y-103627900D01*
X115391269Y-103447204D01*
X115077566Y-103314224D01*
X114729718Y-103172774D01*
X114473721Y-103075771D01*
X114349724Y-103038953D01*
X114348207Y-103039004D01*
X114331553Y-103129357D01*
X114083436Y-103129357D01*
X114037930Y-103017055D01*
X114014695Y-103014627D01*
X113855800Y-103067097D01*
X113575554Y-103190106D01*
X113204636Y-103369702D01*
X112773727Y-103591935D01*
X111565601Y-104232351D01*
X111256374Y-104232351D01*
X110990111Y-103885979D01*
X111608248Y-103885979D01*
X111621994Y-103969069D01*
X111625242Y-103968653D01*
X111753340Y-103917900D01*
X112008606Y-103795578D01*
X112355602Y-103619227D01*
X112758890Y-103406386D01*
X112787238Y-103391176D01*
X113187112Y-103178004D01*
X113526969Y-102999256D01*
X113771641Y-102873278D01*
X113885963Y-102818416D01*
X113889314Y-102816089D01*
X113860635Y-102746867D01*
X114380165Y-102746867D01*
X114445559Y-102809919D01*
X114456584Y-102816089D01*
X114652712Y-102925852D01*
X114970945Y-103078872D01*
X115369574Y-103253186D01*
X115387759Y-103260806D01*
X115796232Y-103429679D01*
X116136994Y-103566392D01*
X116374903Y-103657121D01*
X116474816Y-103688036D01*
X116510546Y-103679175D01*
X116662964Y-103632156D01*
X116724408Y-103611836D01*
X116925677Y-103546923D01*
X116923325Y-103493613D01*
X116805125Y-103337022D01*
X116579668Y-103100947D01*
X116267158Y-102808059D01*
X115487038Y-102107364D01*
X114969630Y-102393664D01*
X114723621Y-102532703D01*
X114496334Y-102667815D01*
X114381797Y-102744742D01*
X114380165Y-102746867D01*
X113860635Y-102746867D01*
X113851836Y-102725628D01*
X113708320Y-102528730D01*
X113479852Y-102252409D01*
X113187519Y-101923678D01*
X113156191Y-101889599D01*
X112855625Y-101571242D01*
X112603406Y-101318959D01*
X112425180Y-101157517D01*
X112346594Y-101111678D01*
X112329202Y-101148870D01*
X112265064Y-101339382D01*
X112167014Y-101661174D01*
X112044794Y-102081871D01*
X111908143Y-102569098D01*
X111845429Y-102800601D01*
X111724952Y-103277345D01*
X111644229Y-103647271D01*
X111624464Y-103778396D01*
X111608248Y-103885979D01*
X110990111Y-103885979D01*
X110652320Y-103446558D01*
X110645115Y-103437190D01*
X110377737Y-103096336D01*
X110153547Y-102823050D01*
X109995862Y-102644920D01*
X109927998Y-102589533D01*
X109909727Y-102618677D01*
X109853279Y-102820822D01*
X109792818Y-103182343D01*
X109731086Y-103682035D01*
X109670827Y-104298692D01*
X109614781Y-105011110D01*
X109598947Y-105233143D01*
X109558388Y-105779240D01*
X109518978Y-106281604D01*
X109484547Y-106692239D01*
X109458928Y-106963148D01*
X109438481Y-107243003D01*
X109294927Y-107243003D01*
X109301446Y-107007718D01*
X109331860Y-106436750D01*
X109380206Y-105716666D01*
X109385740Y-105639600D01*
X109435868Y-104997199D01*
X109490787Y-104376282D01*
X109546385Y-103818425D01*
X109598550Y-103365204D01*
X109643168Y-103058194D01*
X109644589Y-103050284D01*
X109702371Y-102728496D01*
X109720317Y-102509323D01*
X109673833Y-102353383D01*
X109577146Y-102259134D01*
X109957830Y-102259134D01*
X110550431Y-103023641D01*
X110732558Y-103257068D01*
X110950236Y-103531308D01*
X111103721Y-103718737D01*
X111167813Y-103788148D01*
X111168082Y-103778396D01*
X111139692Y-103640917D01*
X111074483Y-103368282D01*
X110981538Y-102995442D01*
X110869941Y-102557345D01*
X110748773Y-102088942D01*
X110627120Y-101625183D01*
X110514063Y-101201016D01*
X110418685Y-100851393D01*
X110350071Y-100611261D01*
X110317302Y-100515572D01*
X110311601Y-100512422D01*
X110277497Y-100567587D01*
X110229246Y-100752959D01*
X110162607Y-101087211D01*
X110073334Y-101589011D01*
X109957830Y-102259134D01*
X109577146Y-102259134D01*
X109538324Y-102221291D01*
X109289195Y-102073664D01*
X108901853Y-101871117D01*
X108643015Y-101728528D01*
X108331429Y-101514325D01*
X108254440Y-101437732D01*
X108572593Y-101437732D01*
X108647117Y-101510622D01*
X108846386Y-101640899D01*
X109126687Y-101799485D01*
X109409124Y-101946087D01*
X109631050Y-102053709D01*
X109736377Y-102094814D01*
X109746218Y-102093507D01*
X109780227Y-102059075D01*
X109817242Y-101955949D01*
X109864390Y-101754928D01*
X109928795Y-101426813D01*
X110017581Y-100942407D01*
X110034563Y-100846832D01*
X110087220Y-100524254D01*
X110116688Y-100298404D01*
X110116963Y-100213333D01*
X110068777Y-100237412D01*
X109901513Y-100353526D01*
X109654956Y-100538676D01*
X109367386Y-100762512D01*
X109077085Y-100994685D01*
X108822332Y-101204846D01*
X108641408Y-101362644D01*
X108572593Y-101437732D01*
X108254440Y-101437732D01*
X108072532Y-101256758D01*
X107796482Y-100894094D01*
X107662871Y-100702591D01*
X107491003Y-100430106D01*
X107396985Y-100209582D01*
X107357599Y-99977422D01*
X107349630Y-99670026D01*
X107337003Y-99396884D01*
X107285299Y-99021861D01*
X107225215Y-98803025D01*
X107487126Y-98803025D01*
X107522655Y-99531697D01*
X107531958Y-99705977D01*
X107563922Y-100034946D01*
X107628692Y-100278177D01*
X107751215Y-100508548D01*
X107956436Y-100798936D01*
X108354689Y-101337502D01*
X108503201Y-100963185D01*
X108744594Y-100963185D01*
X108841951Y-100914082D01*
X109042747Y-100778400D01*
X109302195Y-100588615D01*
X109577858Y-100377299D01*
X109811371Y-100189814D01*
X110458688Y-100189814D01*
X110461115Y-100213333D01*
X110465227Y-100253170D01*
X110510961Y-100487633D01*
X110592414Y-100830464D01*
X110700408Y-101249377D01*
X110825760Y-101712085D01*
X110959292Y-102186301D01*
X111091822Y-102639740D01*
X111214172Y-103040116D01*
X111317160Y-103355142D01*
X111391606Y-103552532D01*
X111428330Y-103599999D01*
X111445660Y-103551652D01*
X111518501Y-103318918D01*
X111618034Y-102976215D01*
X111733037Y-102565087D01*
X111852290Y-102127085D01*
X111964574Y-101703754D01*
X112058669Y-101336643D01*
X112123353Y-101067300D01*
X112147408Y-100937272D01*
X112125687Y-100898431D01*
X112589023Y-100898431D01*
X112606415Y-100937272D01*
X112625131Y-100979072D01*
X112766212Y-101168966D01*
X112990613Y-101440692D01*
X113276682Y-101766829D01*
X113281477Y-101772157D01*
X113580492Y-102100427D01*
X113835077Y-102372523D01*
X114018404Y-102560268D01*
X114103651Y-102635483D01*
X114106375Y-102635899D01*
X114215296Y-102594081D01*
X114430021Y-102485697D01*
X114699610Y-102339106D01*
X114973122Y-102182672D01*
X115199617Y-102044755D01*
X115328157Y-101953719D01*
X115327414Y-101940834D01*
X115264537Y-101811539D01*
X115127760Y-101576398D01*
X114939169Y-101274007D01*
X114520914Y-100621487D01*
X113592865Y-100747760D01*
X113333466Y-100783585D01*
X112972474Y-100835443D01*
X112710159Y-100875683D01*
X112590439Y-100897734D01*
X112589023Y-100898431D01*
X112125687Y-100898431D01*
X112080739Y-100818054D01*
X111952403Y-100683703D01*
X112502066Y-100683703D01*
X112771589Y-100671091D01*
X112775686Y-100670892D01*
X113007693Y-100651654D01*
X113351226Y-100614370D01*
X113733487Y-100566924D01*
X114425862Y-100475370D01*
X114352891Y-100401481D01*
X114696145Y-100401481D01*
X114717240Y-100475370D01*
X114732774Y-100529781D01*
X114848563Y-100770683D01*
X115016667Y-101059999D01*
X115194769Y-101322261D01*
X115303237Y-101427839D01*
X115333121Y-101362828D01*
X115284970Y-101130555D01*
X115631607Y-101130555D01*
X115679447Y-101214166D01*
X115881472Y-101228806D01*
X116239630Y-101143994D01*
X116358319Y-101088132D01*
X116644644Y-100843146D01*
X116990188Y-100423404D01*
X117053443Y-100337282D01*
X117274095Y-100013766D01*
X117412209Y-99740323D01*
X117499740Y-99440391D01*
X117568641Y-99037407D01*
X117584143Y-98929120D01*
X117627167Y-98595202D01*
X117650755Y-98354956D01*
X117650109Y-98254494D01*
X117574784Y-98299323D01*
X117387125Y-98446400D01*
X117115827Y-98672688D01*
X116789434Y-98954957D01*
X116470819Y-99234353D01*
X116194504Y-99475771D01*
X116192302Y-99477683D01*
X116000934Y-99643883D01*
X115919362Y-99713199D01*
X115916570Y-99716527D01*
X115879324Y-99833837D01*
X115843013Y-99987642D01*
X115822798Y-100073270D01*
X115758377Y-100378742D01*
X115697447Y-100694169D01*
X115651395Y-100963468D01*
X115631607Y-101130555D01*
X115284970Y-101130555D01*
X115284327Y-101127455D01*
X115156760Y-100721949D01*
X115083780Y-100507680D01*
X114973120Y-100190090D01*
X114901880Y-100012912D01*
X114855392Y-99950983D01*
X114818987Y-99979141D01*
X114777997Y-100072222D01*
X114734783Y-100198835D01*
X114696145Y-100401481D01*
X114352891Y-100401481D01*
X113924848Y-99968055D01*
X113878948Y-99921834D01*
X113637821Y-99687812D01*
X113453424Y-99523043D01*
X113362567Y-99460740D01*
X113324316Y-99479706D01*
X113320602Y-99483834D01*
X113250807Y-99561407D01*
X113128745Y-99730168D01*
X112940865Y-100010022D01*
X112669905Y-100424999D01*
X112502066Y-100683703D01*
X111952403Y-100683703D01*
X111899866Y-100628704D01*
X111644829Y-100412921D01*
X111340090Y-100197982D01*
X111059592Y-100064156D01*
X110798163Y-100025185D01*
X110662485Y-100029849D01*
X110500296Y-100076341D01*
X110458688Y-100189814D01*
X109811371Y-100189814D01*
X109827301Y-100177024D01*
X110008086Y-100020363D01*
X110019420Y-100007275D01*
X111430784Y-100007275D01*
X111482654Y-100059757D01*
X111654635Y-100199920D01*
X111896043Y-100379759D01*
X112318675Y-100683271D01*
X112692470Y-100095524D01*
X112722800Y-100047647D01*
X112893594Y-99769974D01*
X113008987Y-99568429D01*
X113045425Y-99483834D01*
X113044995Y-99483408D01*
X112948432Y-99493204D01*
X112750626Y-99548014D01*
X112598358Y-99595041D01*
X112281224Y-99688343D01*
X111932412Y-99787219D01*
X111687058Y-99864428D01*
X111509987Y-99939887D01*
X111490060Y-99948379D01*
X111430784Y-100007275D01*
X110019420Y-100007275D01*
X110077778Y-99939887D01*
X110070025Y-99915513D01*
X109974649Y-99788773D01*
X109809201Y-99615115D01*
X109622725Y-99441178D01*
X109464264Y-99313600D01*
X109382858Y-99279022D01*
X109363102Y-99314184D01*
X109282725Y-99491933D01*
X109160046Y-99781704D01*
X109014613Y-100137664D01*
X109012524Y-100142777D01*
X108929247Y-100355044D01*
X108815423Y-100668711D01*
X108749785Y-100883940D01*
X108744594Y-100963185D01*
X108503201Y-100963185D01*
X108592710Y-100737583D01*
X108830732Y-100137664D01*
X108158929Y-99470344D01*
X107487126Y-98803025D01*
X107225215Y-98803025D01*
X107207284Y-98737719D01*
X107179875Y-98668643D01*
X107173704Y-98648137D01*
X107660505Y-98648137D01*
X107678108Y-98678106D01*
X107798811Y-98815365D01*
X108009456Y-99036404D01*
X108282324Y-99311644D01*
X108927459Y-99951835D01*
X109054228Y-99588695D01*
X109080410Y-99511982D01*
X109152735Y-99277355D01*
X109182536Y-99141678D01*
X109106156Y-99089884D01*
X108897716Y-99003473D01*
X108608166Y-98900092D01*
X108288590Y-98796304D01*
X107990066Y-98708673D01*
X107763678Y-98653762D01*
X107660505Y-98648137D01*
X107173704Y-98648137D01*
X107116097Y-98456706D01*
X107115698Y-98346277D01*
X107116737Y-98345447D01*
X107228357Y-98352196D01*
X107482116Y-98403808D01*
X107841336Y-98491952D01*
X108269341Y-98608299D01*
X108502722Y-98675125D01*
X108914359Y-98801223D01*
X109209619Y-98912989D01*
X109434049Y-99032796D01*
X109578393Y-99141678D01*
X109633196Y-99183017D01*
X109852607Y-99386026D01*
X110037564Y-99559484D01*
X110262158Y-99736425D01*
X110442272Y-99814441D01*
X110625874Y-99820486D01*
X110684066Y-99814136D01*
X110785468Y-99792238D01*
X110804055Y-99744132D01*
X110796777Y-99735305D01*
X111497828Y-99735305D01*
X111582130Y-99711372D01*
X111800896Y-99645923D01*
X112100371Y-99554814D01*
X112664816Y-99381982D01*
X112232544Y-99374324D01*
X112105449Y-99375233D01*
X111819479Y-99423584D01*
X111630001Y-99554814D01*
X111523425Y-99682069D01*
X111497828Y-99735305D01*
X110796777Y-99735305D01*
X110723877Y-99646892D01*
X110528983Y-99477591D01*
X110203422Y-99213305D01*
X110057819Y-99101174D01*
X109656816Y-98819230D01*
X109464813Y-98693866D01*
X109894081Y-98693866D01*
X109894895Y-98697287D01*
X109976639Y-98790955D01*
X110165540Y-98962861D01*
X110423893Y-99178518D01*
X110589472Y-99311682D01*
X110868000Y-99528172D01*
X111051199Y-99644823D01*
X111174305Y-99674289D01*
X111272556Y-99629224D01*
X111381189Y-99522281D01*
X111514582Y-99364580D01*
X111537932Y-99294189D01*
X113531383Y-99294189D01*
X113558671Y-99381982D01*
X113562791Y-99395236D01*
X113698975Y-99544823D01*
X113961528Y-99776789D01*
X113984668Y-99796512D01*
X114239332Y-100007262D01*
X114433038Y-100156611D01*
X114525446Y-100213333D01*
X114528986Y-100212720D01*
X114584538Y-100119585D01*
X114643664Y-99916119D01*
X114661653Y-99815286D01*
X115075532Y-99815286D01*
X115109997Y-100016594D01*
X115217319Y-100361204D01*
X115283019Y-100552935D01*
X115387828Y-100806509D01*
X115463472Y-100884674D01*
X115520035Y-100792427D01*
X115567598Y-100534763D01*
X115603144Y-100260784D01*
X115622674Y-99987642D01*
X115593546Y-99833429D01*
X115504912Y-99758422D01*
X115345927Y-99722896D01*
X115251608Y-99711378D01*
X115120533Y-99724479D01*
X115081951Y-99802334D01*
X115075532Y-99815286D01*
X114661653Y-99815286D01*
X114663964Y-99802334D01*
X114639553Y-99608600D01*
X114587976Y-99554814D01*
X115050893Y-99554814D01*
X115373512Y-99554814D01*
X115578962Y-99542807D01*
X115662027Y-99477683D01*
X115650908Y-99318239D01*
X115629192Y-99221859D01*
X115546274Y-99058990D01*
X115425061Y-99076037D01*
X115252640Y-99271486D01*
X115050893Y-99554814D01*
X114587976Y-99554814D01*
X114486509Y-99449002D01*
X114463493Y-99431576D01*
X114090783Y-99200378D01*
X113796686Y-99121594D01*
X113592424Y-99198370D01*
X113583157Y-99207845D01*
X113577384Y-99217472D01*
X113531383Y-99294189D01*
X111537932Y-99294189D01*
X111563381Y-99217472D01*
X111491513Y-99054121D01*
X111291708Y-98817232D01*
X111266555Y-98789627D01*
X111105007Y-98627968D01*
X110959794Y-98550435D01*
X110763272Y-98537033D01*
X110447799Y-98567765D01*
X110195853Y-98603734D01*
X109976704Y-98651582D01*
X109894081Y-98693866D01*
X109464813Y-98693866D01*
X109162440Y-98496438D01*
X108623944Y-98164463D01*
X108090579Y-97854968D01*
X106693071Y-97073326D01*
X106621738Y-96953791D01*
X106884486Y-96953791D01*
X106891025Y-96958623D01*
X107013263Y-97032790D01*
X107261426Y-97176884D01*
X107603669Y-97372552D01*
X108008149Y-97601440D01*
X108095180Y-97650494D01*
X108607976Y-97940222D01*
X108980723Y-98148631D01*
X109235514Y-98283130D01*
X109394441Y-98351132D01*
X109479594Y-98360047D01*
X109513066Y-98317286D01*
X109516949Y-98230261D01*
X109513334Y-98106382D01*
X109511974Y-98058954D01*
X109685626Y-98058954D01*
X109693549Y-98132850D01*
X109715594Y-98230261D01*
X109745682Y-98363214D01*
X109852801Y-98454804D01*
X110052923Y-98447879D01*
X110263253Y-98413190D01*
X110071390Y-98037106D01*
X110066072Y-98026756D01*
X109936252Y-97830842D01*
X110454075Y-97830842D01*
X110457336Y-98065443D01*
X110482933Y-98244607D01*
X110552928Y-98317830D01*
X110689260Y-98331851D01*
X110777962Y-98328636D01*
X110861196Y-98294020D01*
X110904844Y-98188814D01*
X110921672Y-97973835D01*
X110924445Y-97609897D01*
X110924445Y-96887943D01*
X110689260Y-97108888D01*
X110682841Y-97114952D01*
X110539858Y-97289331D01*
X110471548Y-97503571D01*
X110462484Y-97673333D01*
X110454075Y-97830842D01*
X109936252Y-97830842D01*
X109905147Y-97783901D01*
X109774590Y-97709081D01*
X109694661Y-97801147D01*
X109685626Y-98058954D01*
X109511974Y-98058954D01*
X109510799Y-98017949D01*
X109483215Y-97875244D01*
X109405895Y-97745191D01*
X109310162Y-97658207D01*
X110088587Y-97658207D01*
X110153038Y-97786222D01*
X110176020Y-97807831D01*
X110246956Y-97822860D01*
X110265927Y-97673333D01*
X110265240Y-97628054D01*
X110237287Y-97514137D01*
X110153038Y-97560444D01*
X110088587Y-97658207D01*
X109310162Y-97658207D01*
X109255207Y-97608275D01*
X109007521Y-97444981D01*
X108639206Y-97235793D01*
X108126630Y-96961197D01*
X107257333Y-96500856D01*
X107050004Y-96708185D01*
X107041072Y-96717192D01*
X106913524Y-96869350D01*
X106884486Y-96953791D01*
X106621738Y-96953791D01*
X106170030Y-96196846D01*
X105686746Y-95386991D01*
X105938519Y-95386991D01*
X105971325Y-95468637D01*
X106076013Y-95672122D01*
X106227646Y-95945030D01*
X106367421Y-96180347D01*
X106495112Y-96375448D01*
X106561168Y-96450370D01*
X106568522Y-96443485D01*
X106569860Y-96322245D01*
X106535430Y-96097592D01*
X106527260Y-96053311D01*
X106516938Y-95962675D01*
X106712711Y-95962675D01*
X106714459Y-96121938D01*
X106752555Y-96322245D01*
X106759493Y-96358727D01*
X106810288Y-96526469D01*
X106870840Y-96590028D01*
X106958878Y-96514826D01*
X107004100Y-96450252D01*
X107018210Y-96313384D01*
X106913354Y-96114560D01*
X106895526Y-96088181D01*
X106779118Y-95958588D01*
X106713970Y-95958461D01*
X106712711Y-95962675D01*
X106516938Y-95962675D01*
X106487126Y-95700916D01*
X106476997Y-95343672D01*
X106488699Y-94942530D01*
X106213609Y-95138411D01*
X106176821Y-95165080D01*
X106007393Y-95303164D01*
X105938519Y-95386991D01*
X105686746Y-95386991D01*
X105646988Y-95320367D01*
X105677485Y-95102547D01*
X105876375Y-95102547D01*
X105887401Y-95102383D01*
X106006613Y-95045402D01*
X106208491Y-94925007D01*
X106294998Y-94865684D01*
X106437471Y-94711877D01*
X106477447Y-94517195D01*
X106416733Y-94241540D01*
X106394804Y-94187030D01*
X106598478Y-94187030D01*
X106625882Y-94390059D01*
X106721202Y-94467164D01*
X106895307Y-94386736D01*
X107159065Y-94148018D01*
X107570129Y-93729174D01*
X107083583Y-93884765D01*
X106950772Y-93930828D01*
X106688529Y-94061336D01*
X106598478Y-94187030D01*
X106394804Y-94187030D01*
X106257134Y-93844815D01*
X106199605Y-93714922D01*
X106652341Y-93714922D01*
X106693556Y-93793374D01*
X106844367Y-93784635D01*
X107137964Y-93699009D01*
X107268223Y-93652066D01*
X107420842Y-93555149D01*
X107385803Y-93468658D01*
X107163048Y-93393306D01*
X106947827Y-93345451D01*
X106817039Y-93315276D01*
X106752013Y-93377100D01*
X106682497Y-93557592D01*
X106652341Y-93714922D01*
X106199605Y-93714922D01*
X106098674Y-93487036D01*
X105977501Y-94284768D01*
X105955155Y-94434571D01*
X105908511Y-94769914D01*
X105880442Y-95007202D01*
X105876375Y-95102547D01*
X105677485Y-95102547D01*
X105801672Y-94215554D01*
X105850690Y-93894383D01*
X105950332Y-93383583D01*
X106008789Y-93156362D01*
X106262703Y-93156362D01*
X106270297Y-93357392D01*
X106331827Y-93555257D01*
X106404921Y-93672732D01*
X106444828Y-93621079D01*
X106519350Y-93432085D01*
X106575995Y-93259420D01*
X107401345Y-93259420D01*
X107501630Y-93315939D01*
X107707960Y-93341689D01*
X107850190Y-93313205D01*
X108078019Y-93168267D01*
X108093204Y-93152792D01*
X108448703Y-93152792D01*
X108453341Y-93151851D01*
X108576983Y-93098923D01*
X108837451Y-92974479D01*
X109207949Y-92791717D01*
X109661681Y-92563836D01*
X110171853Y-92304036D01*
X110280145Y-92248418D01*
X110756025Y-92001025D01*
X111150601Y-91791006D01*
X111442224Y-91630241D01*
X111609240Y-91530610D01*
X111630001Y-91503992D01*
X111536993Y-91526699D01*
X111231965Y-91608072D01*
X110845446Y-91717166D01*
X110421220Y-91840928D01*
X110003073Y-91966304D01*
X109634789Y-92080242D01*
X109360151Y-92169688D01*
X109222947Y-92221589D01*
X109129831Y-92292922D01*
X109047814Y-92374358D01*
X108939205Y-92482198D01*
X108722759Y-92729537D01*
X108571356Y-92924122D01*
X108461258Y-93090660D01*
X108448703Y-93152792D01*
X108093204Y-93152792D01*
X108360927Y-92879962D01*
X108554170Y-92652808D01*
X108703554Y-92464514D01*
X108760741Y-92374358D01*
X108747768Y-92366819D01*
X108617449Y-92392627D01*
X108392320Y-92470966D01*
X108388368Y-92472525D01*
X108107888Y-92610490D01*
X107827552Y-92791096D01*
X107588755Y-92981409D01*
X107432888Y-93148495D01*
X107401345Y-93259420D01*
X106575995Y-93259420D01*
X106611710Y-93150556D01*
X106623874Y-93109293D01*
X106879260Y-93109293D01*
X106894899Y-93131411D01*
X107020371Y-93157777D01*
X107084653Y-93153873D01*
X107161482Y-93122446D01*
X107187961Y-93046296D01*
X107272695Y-92840933D01*
X107312544Y-92749111D01*
X107568125Y-92749111D01*
X107582980Y-92757918D01*
X107672162Y-92700493D01*
X107781294Y-92525695D01*
X107883174Y-92284751D01*
X107950596Y-92028888D01*
X107972655Y-91873150D01*
X107959270Y-91831695D01*
X107924207Y-91887777D01*
X107893692Y-91936585D01*
X107847728Y-92028888D01*
X107762509Y-92200023D01*
X107659799Y-92427000D01*
X107579819Y-92645671D01*
X107568125Y-92749111D01*
X107312544Y-92749111D01*
X107395481Y-92558001D01*
X107501413Y-92309822D01*
X107579430Y-92106804D01*
X107596948Y-92028888D01*
X107591660Y-92031440D01*
X107512557Y-92126440D01*
X107373258Y-92322053D01*
X107207021Y-92568211D01*
X107047104Y-92814848D01*
X106926764Y-93011897D01*
X106879260Y-93109293D01*
X106623874Y-93109293D01*
X106707883Y-92824329D01*
X106793843Y-92501239D01*
X106855563Y-92229121D01*
X106879018Y-92055811D01*
X106878717Y-92053197D01*
X106828617Y-92100270D01*
X106709378Y-92272483D01*
X106545040Y-92535323D01*
X106513720Y-92587715D01*
X106338250Y-92916542D01*
X106262703Y-93156362D01*
X106008789Y-93156362D01*
X106084007Y-92863993D01*
X106257039Y-92311110D01*
X106453238Y-92311110D01*
X106540651Y-92234334D01*
X106666500Y-92030218D01*
X106805373Y-91750850D01*
X106933402Y-91448369D01*
X107026716Y-91174913D01*
X107061445Y-90982622D01*
X107061261Y-90972733D01*
X107056908Y-90830749D01*
X107048283Y-90791659D01*
X107458379Y-90791659D01*
X107458812Y-90792661D01*
X107531145Y-90764822D01*
X107686867Y-90630783D01*
X107890011Y-90428084D01*
X108104610Y-90194268D01*
X108294697Y-89966875D01*
X108424305Y-89783449D01*
X108438526Y-89748488D01*
X108385722Y-89754146D01*
X108248484Y-89845931D01*
X108062539Y-89994451D01*
X107863612Y-90170315D01*
X107687428Y-90344133D01*
X107616743Y-90429629D01*
X107569712Y-90486514D01*
X107481133Y-90657510D01*
X107458379Y-90791659D01*
X107048283Y-90791659D01*
X107042672Y-90766230D01*
X107007116Y-90798841D01*
X106938806Y-90948248D01*
X106826307Y-91234116D01*
X106658182Y-91676110D01*
X106642073Y-91718794D01*
X106533907Y-92018824D01*
X106466276Y-92230780D01*
X106453238Y-92311110D01*
X106257039Y-92311110D01*
X106266322Y-92281449D01*
X106511882Y-91581784D01*
X106652743Y-91186256D01*
X106817903Y-90699699D01*
X106927432Y-90354619D01*
X107274902Y-90354619D01*
X107287327Y-90547222D01*
X107319993Y-90563179D01*
X107334777Y-90429629D01*
X107321663Y-90300218D01*
X107287327Y-90312036D01*
X107274902Y-90354619D01*
X106927432Y-90354619D01*
X106949292Y-90285747D01*
X107036073Y-89978893D01*
X107049073Y-89910331D01*
X107369730Y-89910331D01*
X107380988Y-90021975D01*
X107409284Y-90036692D01*
X107419948Y-90012702D01*
X107631853Y-90012702D01*
X107655225Y-90051148D01*
X107764148Y-89994959D01*
X107979384Y-89809522D01*
X108243334Y-89565711D01*
X107937593Y-89768890D01*
X107877263Y-89809783D01*
X107702236Y-89940066D01*
X107683638Y-89959259D01*
X107631853Y-90012702D01*
X107419948Y-90012702D01*
X107443704Y-89959259D01*
X107436915Y-89909456D01*
X107380988Y-89896543D01*
X107369730Y-89910331D01*
X107049073Y-89910331D01*
X107067408Y-89813633D01*
X107084038Y-89658029D01*
X107171663Y-89607148D01*
X107385932Y-89634192D01*
X107538708Y-89648947D01*
X107704971Y-89621446D01*
X107914697Y-89534693D01*
X108205206Y-89373092D01*
X108613815Y-89121048D01*
X108947866Y-88912425D01*
X109256803Y-88723438D01*
X109473729Y-88595317D01*
X109565291Y-88548148D01*
X109609211Y-88573861D01*
X109580455Y-88673764D01*
X109458510Y-88860700D01*
X109234259Y-89146997D01*
X108898589Y-89544985D01*
X108880476Y-89565711D01*
X108720738Y-89748488D01*
G37*
%TD*%
M02*
