%TF.GenerationSoftware,KiCad,Pcbnew,9.0.6*%
%TF.CreationDate,2025-12-11T12:47:50+11:00*%
%TF.ProjectId,vali-macroPAD,76616c69-2d6d-4616-9372-6f5041442e6b,rev?*%
%TF.SameCoordinates,Original*%
%TF.FileFunction,Copper,L2,Bot*%
%TF.FilePolarity,Positive*%
%FSLAX46Y46*%
G04 Gerber Fmt 4.6, Leading zero omitted, Abs format (unit mm)*
G04 Created by KiCad (PCBNEW 9.0.6) date 2025-12-11 12:47:50*
%MOMM*%
%LPD*%
G01*
G04 APERTURE LIST*
G04 Aperture macros list*
%AMRoundRect*
0 Rectangle with rounded corners*
0 $1 Rounding radius*
0 $2 $3 $4 $5 $6 $7 $8 $9 X,Y pos of 4 corners*
0 Add a 4 corners polygon primitive as box body*
4,1,4,$2,$3,$4,$5,$6,$7,$8,$9,$2,$3,0*
0 Add four circle primitives for the rounded corners*
1,1,$1+$1,$2,$3*
1,1,$1+$1,$4,$5*
1,1,$1+$1,$6,$7*
1,1,$1+$1,$8,$9*
0 Add four rect primitives between the rounded corners*
20,1,$1+$1,$2,$3,$4,$5,0*
20,1,$1+$1,$4,$5,$6,$7,0*
20,1,$1+$1,$6,$7,$8,$9,0*
20,1,$1+$1,$8,$9,$2,$3,0*%
G04 Aperture macros list end*
%TA.AperFunction,ComponentPad*%
%ADD10C,2.200000*%
%TD*%
%TA.AperFunction,ComponentPad*%
%ADD11R,2.000000X2.000000*%
%TD*%
%TA.AperFunction,ComponentPad*%
%ADD12C,2.000000*%
%TD*%
%TA.AperFunction,ComponentPad*%
%ADD13R,3.200000X2.000000*%
%TD*%
%TA.AperFunction,ComponentPad*%
%ADD14RoundRect,0.250000X-0.550000X-0.550000X0.550000X-0.550000X0.550000X0.550000X-0.550000X0.550000X0*%
%TD*%
%TA.AperFunction,ComponentPad*%
%ADD15C,1.600000*%
%TD*%
%TA.AperFunction,ComponentPad*%
%ADD16R,1.700000X1.700000*%
%TD*%
%TA.AperFunction,ComponentPad*%
%ADD17O,1.700000X1.700000*%
%TD*%
%TA.AperFunction,ComponentPad*%
%ADD18C,1.524000*%
%TD*%
%TA.AperFunction,ViaPad*%
%ADD19C,0.600000*%
%TD*%
%TA.AperFunction,Conductor*%
%ADD20C,0.200000*%
%TD*%
G04 APERTURE END LIST*
D10*
%TO.P,SW11,1,1*%
%TO.N,Net-(D11-A)*%
X183515000Y-104457500D03*
%TO.P,SW11,2,2*%
%TO.N,Row3*%
X177165000Y-106997500D03*
%TD*%
%TO.P,SW6,1,1*%
%TO.N,Net-(D6-A)*%
X126365000Y-104457500D03*
%TO.P,SW6,2,2*%
%TO.N,Row2*%
X120015000Y-106997500D03*
%TD*%
D11*
%TO.P,SW10,A,A*%
%TO.N,REA*%
X192775000Y-87987500D03*
D12*
%TO.P,SW10,B,B*%
%TO.N,REB*%
X192775000Y-92987500D03*
%TO.P,SW10,C,C*%
%TO.N,GND*%
X192775000Y-90487500D03*
D13*
%TO.P,SW10,MP*%
%TO.N,N/C*%
X200275000Y-84887500D03*
X200275000Y-96087500D03*
D12*
%TO.P,SW10,S1,S1*%
%TO.N,Row3*%
X207275000Y-92987500D03*
%TO.P,SW10,S2,S2*%
%TO.N,Net-(D10-A)*%
X207275000Y-87987500D03*
%TD*%
D14*
%TO.P,D2,1,K*%
%TO.N,Col2*%
X118190000Y-69000000D03*
D15*
%TO.P,D2,2,A*%
%TO.N,Net-(D2-A)*%
X125810000Y-69000000D03*
%TD*%
D14*
%TO.P,D10,1,K*%
%TO.N,Col2*%
X140380000Y-69000000D03*
D15*
%TO.P,D10,2,A*%
%TO.N,Net-(D10-A)*%
X148000000Y-69000000D03*
%TD*%
D10*
%TO.P,SW3,1,1*%
%TO.N,Net-(D3-A)*%
X145415000Y-85407500D03*
%TO.P,SW3,2,2*%
%TO.N,Row1*%
X139065000Y-87947500D03*
%TD*%
D14*
%TO.P,D7,1,K*%
%TO.N,Col3*%
X129380000Y-74000000D03*
D15*
%TO.P,D7,2,A*%
%TO.N,Net-(D7-A)*%
X137000000Y-74000000D03*
%TD*%
D14*
%TO.P,D12,1,K*%
%TO.N,Col4*%
X140380000Y-78000000D03*
D15*
%TO.P,D12,2,A*%
%TO.N,Net-(D12-A)*%
X148000000Y-78000000D03*
%TD*%
D14*
%TO.P,D8,1,K*%
%TO.N,Col4*%
X129380000Y-78000000D03*
D15*
%TO.P,D8,2,A*%
%TO.N,Net-(D8-A)*%
X137000000Y-78000000D03*
%TD*%
D10*
%TO.P,SW7,1,1*%
%TO.N,Net-(D7-A)*%
X145415000Y-104457500D03*
%TO.P,SW7,2,2*%
%TO.N,Row2*%
X139065000Y-106997500D03*
%TD*%
%TO.P,SW4,1,1*%
%TO.N,Net-(D4-A)*%
X164465000Y-85407500D03*
%TO.P,SW4,2,2*%
%TO.N,Row1*%
X158115000Y-87947500D03*
%TD*%
%TO.P,SW12,1,1*%
%TO.N,Net-(D12-A)*%
X202565000Y-104457500D03*
%TO.P,SW12,2,2*%
%TO.N,Row3*%
X196215000Y-106997500D03*
%TD*%
D14*
%TO.P,D6,1,K*%
%TO.N,Col2*%
X129380000Y-69000000D03*
D15*
%TO.P,D6,2,A*%
%TO.N,Net-(D6-A)*%
X137000000Y-69000000D03*
%TD*%
D10*
%TO.P,SW1,1,1*%
%TO.N,Net-(D1-A)*%
X107315000Y-85407500D03*
%TO.P,SW1,2,2*%
%TO.N,Row1*%
X100965000Y-87947500D03*
%TD*%
D16*
%TO.P,OL1,1,SDA*%
%TO.N,GND*%
X207168750Y-66198750D03*
D17*
%TO.P,OL1,2,SCL*%
%TO.N,VCC*%
X207168750Y-68738750D03*
%TO.P,OL1,3,VCC*%
%TO.N,OLEDSCL*%
X207168750Y-71278750D03*
%TO.P,OL1,4,GND*%
%TO.N,OLEDSDA*%
X207168750Y-73818750D03*
%TD*%
D10*
%TO.P,SW8,1,1*%
%TO.N,Net-(D8-A)*%
X164465000Y-104457500D03*
%TO.P,SW8,2,2*%
%TO.N,Row2*%
X158115000Y-106997500D03*
%TD*%
D14*
%TO.P,D11,1,K*%
%TO.N,Col3*%
X140380000Y-74000000D03*
D15*
%TO.P,D11,2,A*%
%TO.N,Net-(D11-A)*%
X148000000Y-74000000D03*
%TD*%
D18*
%TO.P,U1,1,GPIO26/ADC0/A0*%
%TO.N,Row1*%
X98151250Y-79057500D03*
%TO.P,U1,2,GPIO27/ADC1/A1*%
%TO.N,Row2*%
X100691250Y-79057500D03*
%TO.P,U1,3,GPIO28/ADC2/A2*%
%TO.N,Row3*%
X103231250Y-79057500D03*
%TO.P,U1,4,GPIO29/ADC3/A3*%
%TO.N,REA*%
X105771250Y-79057500D03*
%TO.P,U1,5,GPIO6/SDA*%
%TO.N,OLEDSDA*%
X108311250Y-79057500D03*
%TO.P,U1,6,GPIO7/SCL*%
%TO.N,OLEDSCL*%
X110851250Y-79057500D03*
%TO.P,U1,7,GPIO0/TX*%
%TO.N,REB*%
X113391250Y-79057500D03*
%TO.P,U1,8,GPIO1/RX*%
%TO.N,Col4*%
X113391250Y-63817500D03*
%TO.P,U1,9,GPIO2/SCK*%
%TO.N,Col3*%
X110851250Y-63817500D03*
%TO.P,U1,10,GPIO4/MISO*%
%TO.N,Col2*%
X108311250Y-63817500D03*
%TO.P,U1,11,GPIO3/MOSI*%
%TO.N,Col1*%
X105771250Y-63817500D03*
%TO.P,U1,12,3V3*%
%TO.N,unconnected-(U1-3V3-Pad12)*%
X103231250Y-63817500D03*
%TO.P,U1,13,GND*%
%TO.N,GND*%
X100691250Y-63817500D03*
%TO.P,U1,14,VBUS*%
%TO.N,VCC*%
X98151250Y-63817500D03*
%TD*%
D14*
%TO.P,D5,1,K*%
%TO.N,Col1*%
X129380000Y-65000000D03*
D15*
%TO.P,D5,2,A*%
%TO.N,Net-(D5-A)*%
X137000000Y-65000000D03*
%TD*%
D10*
%TO.P,SW9,1,1*%
%TO.N,Net-(D9-A)*%
X183515000Y-85407500D03*
%TO.P,SW9,2,2*%
%TO.N,Row3*%
X177165000Y-87947500D03*
%TD*%
D14*
%TO.P,D9,1,K*%
%TO.N,Col1*%
X140380000Y-65000000D03*
D15*
%TO.P,D9,2,A*%
%TO.N,Net-(D9-A)*%
X148000000Y-65000000D03*
%TD*%
D14*
%TO.P,D4,1,K*%
%TO.N,Col4*%
X118190000Y-78000000D03*
D15*
%TO.P,D4,2,A*%
%TO.N,Net-(D4-A)*%
X125810000Y-78000000D03*
%TD*%
D14*
%TO.P,D1,1,K*%
%TO.N,Col1*%
X118190000Y-65000000D03*
D15*
%TO.P,D1,2,A*%
%TO.N,Net-(D1-A)*%
X125810000Y-65000000D03*
%TD*%
D10*
%TO.P,SW5,1,1*%
%TO.N,Net-(D5-A)*%
X107315000Y-104457500D03*
%TO.P,SW5,2,2*%
%TO.N,Row2*%
X100965000Y-106997500D03*
%TD*%
%TO.P,SW2,1,1*%
%TO.N,Net-(D2-A)*%
X126365000Y-85407500D03*
%TO.P,SW2,2,2*%
%TO.N,Row1*%
X120015000Y-87947500D03*
%TD*%
D14*
%TO.P,D3,1,K*%
%TO.N,Col3*%
X118190000Y-74000000D03*
D15*
%TO.P,D3,2,A*%
%TO.N,Net-(D3-A)*%
X125810000Y-74000000D03*
%TD*%
D19*
%TO.N,Col2*%
X115100000Y-69000000D03*
%TO.N,Col3*%
X114300000Y-66600000D03*
%TO.N,Net-(D7-A)*%
X134700000Y-88547500D03*
%TO.N,Net-(D8-A)*%
X135700000Y-100000000D03*
%TO.N,Net-(D2-A)*%
X122108023Y-82410500D03*
%TO.N,Net-(D3-A)*%
X137100000Y-79800000D03*
X123200000Y-79701000D03*
%TO.N,Net-(D4-A)*%
X125800000Y-76200000D03*
X137600000Y-71600000D03*
%TD*%
D20*
%TO.N,Net-(D5-A)*%
X128999000Y-75101000D02*
X130165160Y-75101000D01*
X130167160Y-75099000D02*
X130333900Y-75099000D01*
X127500000Y-76600000D02*
X128999000Y-75101000D01*
X127500000Y-77867050D02*
X127500000Y-76600000D01*
X135600000Y-69832900D02*
X135600000Y-66400000D01*
X107315000Y-104457500D02*
X107315000Y-98052050D01*
X130165160Y-75101000D02*
X130167160Y-75099000D01*
X130333900Y-75099000D02*
X135600000Y-69832900D01*
X107315000Y-98052050D02*
X127500000Y-77867050D01*
X135600000Y-66400000D02*
X137000000Y-65000000D01*
%TO.N,Net-(D6-A)*%
X120900000Y-86851186D02*
X121416000Y-87367186D01*
X130333260Y-75500000D02*
X130331260Y-75502000D01*
X127901000Y-76766100D02*
X127901000Y-78033150D01*
X120900000Y-85034150D02*
X120900000Y-86851186D01*
X137000000Y-69000000D02*
X130500000Y-75500000D01*
X121416000Y-87367186D02*
X121416000Y-88527814D01*
X120900000Y-89043814D02*
X120900000Y-98992500D01*
X127901000Y-78033150D02*
X120900000Y-85034150D01*
X129165100Y-75502000D02*
X127901000Y-76766100D01*
X130500000Y-75500000D02*
X130333260Y-75500000D01*
X120900000Y-98992500D02*
X126365000Y-104457500D01*
X130331260Y-75502000D02*
X129165100Y-75502000D01*
X121416000Y-88527814D02*
X120900000Y-89043814D01*
%TO.N,Col2*%
X115100000Y-69000000D02*
X113493750Y-69000000D01*
X113493750Y-69000000D02*
X108311250Y-63817500D01*
%TO.N,Col3*%
X113633750Y-66600000D02*
X110851250Y-63817500D01*
X114300000Y-66600000D02*
X113633750Y-66600000D01*
%TO.N,Net-(D7-A)*%
X134700000Y-88547500D02*
X134700000Y-76300000D01*
X134700000Y-76300000D02*
X137000000Y-74000000D01*
%TO.N,Net-(D8-A)*%
X135700000Y-100000000D02*
X135700000Y-78800000D01*
X136500000Y-78000000D02*
X137000000Y-78000000D01*
X135700000Y-78800000D02*
X136500000Y-78000000D01*
%TO.N,Net-(D9-A)*%
X146600000Y-70475850D02*
X146600000Y-66400000D01*
X176400000Y-80200000D02*
X156324150Y-80200000D01*
X156324150Y-80200000D02*
X146600000Y-70475850D01*
X146600000Y-66400000D02*
X148000000Y-65000000D01*
X181607500Y-85407500D02*
X176400000Y-80200000D01*
X183515000Y-85407500D02*
X181607500Y-85407500D01*
%TO.N,Net-(D10-A)*%
X170501000Y-62401000D02*
X154599000Y-62401000D01*
X207275000Y-87987500D02*
X196087500Y-87987500D01*
X196087500Y-87987500D02*
X170501000Y-62401000D01*
X154599000Y-62401000D02*
X148000000Y-69000000D01*
%TO.N,Net-(D11-A)*%
X167194000Y-88136500D02*
X165036500Y-88136500D01*
X162708500Y-85808500D02*
X160798450Y-85808500D01*
X160798450Y-85808500D02*
X148989950Y-74000000D01*
X165036500Y-88136500D02*
X162708500Y-85808500D01*
X183515000Y-104457500D02*
X167194000Y-88136500D01*
X148989950Y-74000000D02*
X148000000Y-74000000D01*
%TO.N,Net-(D12-A)*%
X160632350Y-86209500D02*
X152422850Y-78000000D01*
X180058500Y-105858500D02*
X164987314Y-90787314D01*
X202565000Y-104457500D02*
X185496314Y-104457500D01*
X162509500Y-86209500D02*
X160632350Y-86209500D01*
X152422850Y-78000000D02*
X148000000Y-78000000D01*
X185496314Y-104457500D02*
X184095314Y-105858500D01*
X184095314Y-105858500D02*
X180058500Y-105858500D01*
X164987314Y-88687314D02*
X162509500Y-86209500D01*
X164987314Y-90787314D02*
X164987314Y-88687314D01*
%TO.N,VCC*%
X170667100Y-62000000D02*
X99968750Y-62000000D01*
X207168750Y-68738750D02*
X177405850Y-68738750D01*
X177405850Y-68738750D02*
X170667100Y-62000000D01*
X99968750Y-62000000D02*
X98151250Y-63817500D01*
%TO.N,Net-(D1-A)*%
X124709000Y-66101000D02*
X125810000Y-65000000D01*
X124709000Y-69456050D02*
X124709000Y-66101000D01*
X107315000Y-85407500D02*
X108757550Y-85407500D01*
X108757550Y-85407500D02*
X124709000Y-69456050D01*
%TO.N,Net-(D2-A)*%
X122108023Y-82410500D02*
X122108023Y-72701977D01*
X122108023Y-72701977D02*
X125810000Y-69000000D01*
%TO.N,Net-(D3-A)*%
X142707500Y-85407500D02*
X137100000Y-79800000D01*
X123200000Y-79701000D02*
X123200000Y-76610000D01*
X145415000Y-85407500D02*
X142707500Y-85407500D01*
X123200000Y-76610000D02*
X125810000Y-74000000D01*
%TO.N,Net-(D4-A)*%
X125800000Y-77990000D02*
X125810000Y-78000000D01*
X125800000Y-76200000D02*
X125800000Y-77990000D01*
X147157050Y-71600000D02*
X137600000Y-71600000D01*
X164465000Y-85407500D02*
X160964550Y-85407500D01*
X160964550Y-85407500D02*
X147157050Y-71600000D01*
%TD*%
M02*
